<svg xmlns="http://www.w3.org/2000/svg" viewBox="0 0 885.96 323.72"><title>アセット 23</title><g id="レイヤー_2" data-name="レイヤー 2"><g id="TEXT"><path d="M28.71,36.75h8.21c3.85,0,7.69-.12,11.6-.23.63-.06.92.23.92.92.06,1.49.06,3.1,0,4.59,0,.75-.17,1-.86,1-2.76-.11-7.87-.23-11.6-.23H13.9c-2.36,0-6.09.18-10.57.23-.92.06-1-.17-1.21-1.14a34.74,34.74,0,0,1-.4-5.4c4.14.23,8.5.29,12.18.29h7.8V17.17H17.23c-4.14,0-6.55.11-8.9.23-.69.06-.81-.35-1-1.21a31.83,31.83,0,0,1-.46-5.34,96.63,96.63,0,0,0,9.93.23H33.07c3.51,0,6.66,0,10-.17.58-.06.75.29.75.92.06,1.43.06,3,0,4.48-.06.74-.17,1.09-.81,1.09-3.84-.17-6.66-.23-9.87-.23H28.71Z"/><path d="M67.24,30.6a46,46,0,0,0-8.44.69c-.69,0-1.15-.34-1.32-1.2a61.75,61.75,0,0,1-.86-6.95,74.15,74.15,0,0,0,12.4.69H87.51c4.37,0,8.79-.12,13.21-.17.86-.06,1,.11,1,.8a40.54,40.54,0,0,1,0,5.4c0,.69-.23.92-1,.86-4.31-.06-8.56-.12-12.81-.12Z"/><path d="M112.49,19.06c.29-.4.58-.69,1.09-.57a39.63,39.63,0,0,1,11,5.63c.4.28.63.51.63.86a1.81,1.81,0,0,1-.23.63A23.19,23.19,0,0,1,122.48,30c-.28.35-.51.58-.74.58a1.11,1.11,0,0,1-.69-.35,50.64,50.64,0,0,0-11.6-6.26C110.88,21.65,111.8,20,112.49,19.06Zm9.3,21.31a96.28,96.28,0,0,0,15.74-9.94,104.33,104.33,0,0,0,16.53-16,29,29,0,0,0,1.67,6.43,2.88,2.88,0,0,1,.28,1.09,1.78,1.78,0,0,1-.63,1.32A106.71,106.71,0,0,1,140.8,36.52a133.57,133.57,0,0,1-17.17,10.79,18.44,18.44,0,0,0-3.33,2,1.26,1.26,0,0,1-.92.45,1.48,1.48,0,0,1-1.15-.68A37.39,37.39,0,0,1,114,43.18,26.46,26.46,0,0,0,121.79,40.37ZM119.44,5.86c.4-.69.75-.81,1.43-.46a38.84,38.84,0,0,1,10.8,6.37.93.93,0,0,1,.46.75,1.37,1.37,0,0,1-.23.74A24.44,24.44,0,0,1,129,17.57a.63.63,0,0,1-.57.35,1.46,1.46,0,0,1-.86-.41,56,56,0,0,0-11.14-7.06C117.37,9,118.46,7.35,119.44,5.86Zm26.3-1.78c.28-.23.51-.18.86.11a26.44,26.44,0,0,1,5.45,6.14.58.58,0,0,1-.17.92L149.47,13a.6.6,0,0,1-1-.17,28.49,28.49,0,0,0-5.8-6.66ZM150.85.34c.34-.22.51-.17.86.12a24,24,0,0,1,5.45,5.91.67.67,0,0,1-.17,1l-2.3,1.78a.58.58,0,0,1-1-.18A27.35,27.35,0,0,0,148,2.41Z"/><path d="M184.55,41.34h6.09c2.93,0,6.14-.06,9.24-.23.52,0,.75.35.81,1.09.06,1.21.06,2.47,0,3.68-.06.74-.29,1.09-1,1-3,0-6.37-.11-9-.11h-18c-3.45,0-6,.11-8.44.23-.69,0-1-.35-1.09-1.21a25.59,25.59,0,0,1-.29-4.65c3.33.23,6.14.23,9.82.23h5.74V26.87h-3.16c-2.35,0-4.42,0-7.06.06-.52.06-.8-.29-.92-1.15s-.23-2.53-.34-4.59c2.47.23,5.51.23,8,.23h12.74c2.59,0,5.23-.12,7.76-.12.68-.05.86.29.92,1,0,1.15,0,2.41,0,3.56-.06.92-.29,1.15-1.15,1.09-2.24,0-5.11-.12-7.47-.12h-3.16Z"/><path d="M211.89,8.1a1.07,1.07,0,0,1,.8-.46,1.55,1.55,0,0,1,.75.28,60.15,60.15,0,0,1,11,8.16c.34.34.51.57.51.8a1.24,1.24,0,0,1-.34.75c-.86,1.15-2.76,3.44-3.56,4.3-.29.29-.46.46-.69.46s-.46-.17-.75-.46a60.44,60.44,0,0,0-11.71-9.35C209.13,11,210.8,9.24,211.89,8.1Zm5,30.26a85.17,85.17,0,0,0,16.54-10.68c7-5.69,10.85-9.36,15.73-15.62a25.78,25.78,0,0,0,1.61,6.72,2.82,2.82,0,0,1,.29,1.09c0,.51-.29,1-.92,1.72a93.49,93.49,0,0,1-13.21,12.17A123.68,123.68,0,0,1,219.58,45a19.39,19.39,0,0,0-3.84,2.64,1.61,1.61,0,0,1-1,.57,1.49,1.49,0,0,1-1-.63,39.77,39.77,0,0,1-4.6-6.37A34.8,34.8,0,0,0,216.88,38.36Z"/><path d="M273.1,18.83a81.48,81.48,0,0,1,18.26,7.81c.63.35.92.75.63,1.5a33.61,33.61,0,0,1-2.47,5c-.23.4-.46.63-.74.63a.87.87,0,0,1-.64-.28A63.26,63.26,0,0,0,273,26.13V38.82c0,3.73.12,7.12.23,11.25.06.69-.23.86-1,.86a39.6,39.6,0,0,1-5.11,0c-.81,0-1.09-.17-1.09-.86.17-4.25.23-7.64.23-11.31V10.51a43.89,43.89,0,0,0-.58-8.5,42.05,42.05,0,0,1,7.18.92c.8.17,1.09.52,1.09,1a3,3,0,0,1-.46,1.33c-.4.74-.4,2.18-.4,5.39Z"/><path d="M306.52,36.52c-5,0-6.72.11-7.06.11-.52,0-.58-.05-.58-.63V32.56c0-.58.06-.64.58-.64.34,0,2.07.12,7.06.12h15.39v-2.7h-9.48c-5.56,0-7.46.12-7.8.12-.58,0-.64-.06-.64-.58V25.72c0-.57.06-.63.64-.63.34,0,2.24.12,7.8.12h9.48V22.68H314.5c-5.62,0-7.63.11-8,.11-.63,0-.69-.05-.69-.68,0-.35.12-1.09.12-3V16c0-1.9-.12-2.64-.12-3,0-.63.06-.69.69-.69.35,0,2.36.12,8,.12h7.41V9.93H307.44c-5.17,0-6.95.12-7.29.12-.58,0-.63-.06-.63-.63V5.8c0-.57.05-.63.63-.63.34,0,2.12.11,7.29.11h14.47a28.09,28.09,0,0,0-.4-5.28c2.12.06,4,.12,6,.34.52.06.92.29.92.64a2.27,2.27,0,0,1-.35,1.09,8.91,8.91,0,0,0-.34,3.21h14.58c5.17,0,6.95-.11,7.29-.11.58,0,.64.06.64.63V9.42c0,.57-.06.63-.64.63-.34,0-2.12-.12-7.29-.12H327.71v2.53h7.63c5.63,0,7.64-.12,8-.12.58,0,.63.06.63.69,0,.35-.11,1.09-.11,3v3.1c0,1.9.11,2.64.11,3,0,.63-.05.68-.63.68-.4,0-2.41-.11-8-.11h-7.63v2.53H337c5.63,0,7.64-.12,7.92-.12.58,0,.64.06.64.63,0,.35-.12,1.73-.12,5V32c3.39,0,4.71-.12,5-.12.51,0,.57.06.57.64V36c0,.58-.06.63-.57.63-.29,0-1.61-.05-5-.11v2.93c0,3.44.12,4.93.12,5.28,0,.57-.06.63-.64.63h-4.42c-.57,0-.63-.06-.63-.63V43.47H327.77c.05,1,.05,2,.05,2.87,0,2.64-.51,4.19-2.06,5.11s-4,1.2-8.1,1.26c-1.72,0-1.72-.06-2.3-1.67a18.24,18.24,0,0,0-2.24-4.36,38.86,38.86,0,0,0,5.8.23c2.47-.06,3-.46,3-2.12V43.47h-9.42c-5.62,0-7.52.11-7.86.11-.58,0-.64-.06-.64-.69v-3.1c0-.63.06-.69.64-.69.34,0,2.24.12,7.86.12h9.42v-2.7ZM321.91,19V16.13H311.52V19Zm16.42-2.88H327.71V19h10.62ZM327.71,29.34V32h12.17v-2.7Zm12.17,9.88v-2.7H327.71v2.7Z"/><path d="M364.69,38.76c-5.17,0-6.89.11-7.24.11-.63,0-.69,0-.69-.63V34.85c0-.63.06-.69.69-.69.35,0,2.07.12,7.24.12h14.18v-3.1h-8.09c-5.57,0-7.58.11-7.93.11-.57,0-.57-.05-.57-.63V27.39c0-.63,0-.69.57-.69.35,0,2.36.11,7.93.11h8.09v-3H368.08c-5.52,0-7.35.12-7.7.12-.63,0-.69-.06-.69-.58V19.92c0-.57.06-.63.69-.63.35,0,2.18.12,7.7.12h3.5c-.63-1.38-1.21-2.53-1.84-3.62-.28-.52-.34-.75.4-1l3.74-1h-9.19c-5.17,0-6.89.12-7.24.12-.63,0-.69-.06-.69-.64V9.7c0-.63.06-.69.69-.69.35,0,2.07.12,7.24.12h.4a27.45,27.45,0,0,0-3.27-4.94c-.35-.4-.23-.63.46-1l3.33-1.55c.57-.29.74-.23,1.09.22a34.9,34.9,0,0,1,3.85,5.57c.28.52.28.58-.46,1l-1.38.69h5.34V5.34a22.21,22.21,0,0,0-.35-5c1.78.06,4,.18,5.57.35.46.06.69.23.69.52a2.86,2.86,0,0,1-.23,1,9.11,9.11,0,0,0-.34,3.16V9.13H384V5.4a22.49,22.49,0,0,0-.35-5.06c1.73.06,4,.18,5.52.41.51.05.74.23.74.51a2.6,2.6,0,0,1-.23.92,9.11,9.11,0,0,0-.34,3.16V9.13h3.56a42.3,42.3,0,0,0,2.64-4.71,11,11,0,0,0,1-3.1,49.12,49.12,0,0,1,5.57,1.49c.51.18.74.46.74.75a1.2,1.2,0,0,1-.57,1,5.9,5.9,0,0,0-1,1.09c-.74,1.2-1.55,2.35-2.35,3.5h.8c5.17,0,6.89-.12,7.24-.12.57,0,.63.06.63.69v3.56c0,.58-.06.64-.63.64-.35,0-2.07-.12-7.24-.12h-10c1.5.29,2.82.57,4.54,1,.46.12.75.35.75.69a1,1,0,0,1-.64.86,4.3,4.3,0,0,0-.8,1.21l-1,1.84h3.73c5.51,0,7.35-.12,7.69-.12.58,0,.63.06.63.63v3.39c0,.52,0,.58-.63.58-.34,0-2.18-.12-7.69-.12h-11.6v3h9.13c5.63,0,7.58-.11,7.92-.11.58,0,.64.06.64.69v3.27c0,.58-.06.63-.64.63-.34,0-2.29-.11-7.92-.11h-9.13v3.1h15.1c5.17,0,6.89-.12,7.24-.12.57,0,.63.06.63.69v3.39c0,.58-.06.63-.63.63-.35,0-2.07-.11-7.24-.11H389.55c4.82,3.39,10.85,5.62,19.12,7.46a16.28,16.28,0,0,0-2.24,3.68c-.46,1.09-.69,1.49-1.26,1.49a5.69,5.69,0,0,1-1.32-.29,50.19,50.19,0,0,1-19.29-10.27c0,6.83.28,10.39.28,11.36,0,.58,0,.64-.63.64h-4.88c-.52,0-.57-.06-.57-.64,0-1,.17-4.3.23-11.14-4.83,4.6-10.8,7.81-18.44,10.28a4.42,4.42,0,0,1-1.32.35c-.51,0-.74-.4-1.26-1.5a13.78,13.78,0,0,0-2.3-3.44c7.64-1.9,13.5-4.25,18.32-8Zm22.16-19.35a36.22,36.22,0,0,0,1.55-3.33,10.41,10.41,0,0,0,.63-2.3H374.39c.17.06.29.23.46.46a37.06,37.06,0,0,1,2.59,5.17Z"/><path d="M443.13,40.08c0,.63-.35.92-1.09,1a30.15,30.15,0,0,1-4.08.29c-.52,0-.75-.35-.75-.92,0-2.07,0-4.94.06-7-5.11,2.64-6.95,4.88-6.95,7.63,0,2.41,1.95,4,8,4a98.35,98.35,0,0,0,14.3-1.14c.52-.06.75.11.8.63a25.44,25.44,0,0,1,.52,4.71c.06.68-.17,1.09-.63,1.09a102.43,102.43,0,0,1-14.24.74c-9.42,0-14.41-2.81-14.41-9.47,0-5.51,3.44-9.53,12.11-14-.17-2.93-.86-4.08-3.44-4s-5.28,1.83-7.93,4.13a79.58,79.58,0,0,0-5.74,6.26c-.28.34-.46.52-.69.52a1.17,1.17,0,0,1-.63-.41,27.13,27.13,0,0,1-3.27-3.78,1,1,0,0,1-.23-.52c0-.23.11-.4.4-.63a58.88,58.88,0,0,0,12-14.24c-2.7.11-5.8.17-9.19.17-.51,0-.68-.29-.8-.92-.17-.92-.4-3-.57-4.77a126.35,126.35,0,0,0,13.2-.05,43.75,43.75,0,0,0,1.72-4.94A13.47,13.47,0,0,0,432,1a36.52,36.52,0,0,1,6.54,1.6,1,1,0,0,1,.69,1,1.09,1.09,0,0,1-.4.86,4.71,4.71,0,0,0-1,1.38c-.34.8-.63,1.55-1.32,3.1A92.32,92.32,0,0,0,447,7.12c.64-.12.81.06.92.57a19.33,19.33,0,0,1,.58,4.14c0,.57-.18.8-1,.92-4.31.63-9.24,1.26-13.44,1.72a59.42,59.42,0,0,1-4.3,6.37l.06.12a11.36,11.36,0,0,1,5.74-1.78c3.79,0,6.43,1.72,7,6.2,2.24-1,5.51-2.53,8.44-4a17.34,17.34,0,0,0,4.37-3.1,36.63,36.63,0,0,1,4,5,2.29,2.29,0,0,1,.45,1.27c0,.45-.28.68-.86.8a18.45,18.45,0,0,0-3.5.86c-3.73,1.32-7.46,2.58-12.34,4.59Z"/><path d="M473.62,43.64c-5,0-6.72.11-7.06.11-.58,0-.64,0-.64-.63V39.45c0-.58.06-.63.64-.63.34,0,2.06.11,7.06.11h2.24V35.14H475c-4.37,0-5.92.11-6.26.11-.58,0-.63,0-.63-.57s.11-1.89.11-5.4v-8.9c0-3.44-.11-5-.11-5.34,0-.57.05-.63.63-.63.34,0,1.89.12,6.26.12h.92V10.85h-2.13c-4.82,0-6.49.12-6.83.12-.58,0-.63-.06-.63-.64V6.6c0-.51.05-.57.63-.57.34,0,2,.11,6.83.11h2.13a35,35,0,0,0-.41-5.91,50.16,50.16,0,0,1,5.46.4c.63.12.92.29.92.58a2.6,2.6,0,0,1-.29,1c-.23.52-.4,1.26-.4,3.73v.17h1.61c4.82,0,6.48-.11,6.83-.11.57,0,.63.06.63.57v3.73c0,.58-.06.64-.63.64-.35,0-2-.12-6.83-.12H481.2v3.68h.86c4.36,0,5.91-.12,6.32-.12s.57.06.57.63c0,.35-.12,1.9-.12,5.34v8.9c0,3.51.12,5.06.12,5.4,0,.52-.06.57-.57.57s-2-.11-6.32-.11h-.92v3.79h1.21c5,0,6.71-.11,7.06-.11.57,0,.63,0,.63.63v3.67c0,.58-.06.63-.63.63-.35,0-2.07-.11-7.06-.11h-1.21c0,5.4.12,8.32.12,8.55,0,.58-.06.64-.64.64h-4.24c-.58,0-.64-.06-.64-.64,0-.28.06-3.21.12-8.55Zm2.53-20.85V18.66h-3.22v4.13Zm0,8.22V26.7h-3.22V31ZM481,18.66v4.13h3.21V18.66Zm3.21,8H481V31h3.21ZM501.47,8.56A59.05,59.05,0,0,0,501,.34a54.66,54.66,0,0,1,5.57.41c.57.05.92.28.92.57a2.39,2.39,0,0,1-.29,1.09c-.23.69-.4,1.9-.4,5.51v4.6h2.47c4.82,0,6.48-.12,6.89-.12.57,0,.63.06.63.69,0,.35-.12,3-.12,11.37V35.31c0,13.5.12,16.08.12,16.42,0,.52-.06.58-.63.58H512c-.63,0-.68-.06-.68-.58V49.32H497.1V52c0,.52-.05.58-.69.58h-4c-.58,0-.64-.06-.64-.58s.12-2.92.12-16.47V25.78c0-9.65-.12-12.34-.12-12.69,0-.63.06-.69.64-.69.34,0,2,.12,6.83.12h2.24ZM497.1,28.08h4.37V17.57H497.1Zm4.37,16.36V33H497.1V44.44Zm5.34-26.87V28.08h4.48V17.57Zm4.48,26.87V33h-4.48V44.44Z"/><path d="M536.32,6.72c1,.51,1.32.86,1.32,1.38s-.11.57-.86,1.72a13.52,13.52,0,0,0-1.37,4.08A93,93,0,0,0,533,32.44a55.26,55.26,0,0,0,.35,6.72c1.2-2.64,2.24-4.54,3.9-8.56a14.93,14.93,0,0,0,2,3.62,2.33,2.33,0,0,1,.4.86,1.59,1.59,0,0,1-.28.92,57.52,57.52,0,0,0-3.28,8.67,6.79,6.79,0,0,0-.17,1.78c0,.69.12,1.15.12,1.61s-.23.63-.75.75a28.29,28.29,0,0,1-4.71.91c-.4.06-.63-.22-.74-.63-1.61-4-2.65-11.31-2.65-17.11a109.75,109.75,0,0,1,2-18.83,46.89,46.89,0,0,0,1-8.56A25.69,25.69,0,0,1,536.32,6.72Zm12.29,27c.46,0,.58.23.58.86.34,4,3.1,5.4,9.35,5.4a82.1,82.1,0,0,0,11-.75c.58-.05.69,0,.81.75a43.25,43.25,0,0,1,.34,4.94c0,.69,0,.75-1,.86a76.83,76.83,0,0,1-9.35.63c-8.5,0-12.46-1.38-14.93-4.76-1.44-1.84-2-4.77-2-7.47ZM545.4,12.29c.05-.69.23-.86.8-1a91.94,91.94,0,0,1,12.46-1c3.45,0,6.09.11,8.5.34,1.2.06,1.32.17,1.32.75,0,1.72,0,3.27-.12,4.88-.05.52-.23.75-.74.69-3.45-.23-6.43-.35-9.36-.35a70.05,70.05,0,0,0-13,1.33C545.28,14.7,545.28,13.26,545.4,12.29Z"/><path d="M589.78,4.08c1,.23,1.38.51,1.38,1.09a5.51,5.51,0,0,1-.57,1.89c-.29.81-.52,2.59-.81,7-.57,8.84-.86,14.7-.86,22.22,0,5.8.69,7.12,5.29,7.12,5.11,0,13.09-3.1,20.09-10.57a20.11,20.11,0,0,0,1.32,5.46,3.69,3.69,0,0,1,.46,1.38c0,.51-.23,1-1.15,1.78a32.81,32.81,0,0,1-21.76,8.61c-7.35,0-10.79-2.93-10.79-11.71,0-9.65.51-17.92.8-24.81.11-3.39.29-7.06-.57-10.51A59.6,59.6,0,0,1,589.78,4.08Z"/><path d="M647.67,10.28c.51-.17.74-.17.86.46a31.06,31.06,0,0,1,.51,4.65c0,.52-.23.63-.69.69-3.1.63-5.91,1-9.47,1.55-3.67,9.7-7.06,17.62-11.2,24.63-.23.4-.4.57-.63.57a1.62,1.62,0,0,1-.69-.28,27.86,27.86,0,0,1-4-2.93c-.29-.23-.4-.4-.4-.63a1.12,1.12,0,0,1,.29-.69,116,116,0,0,0,9.93-20c-2.18.11-4,.11-5.74.11-1.27,0-1.72,0-3.16-.05-.57,0-.69-.18-.8-.92a30.21,30.21,0,0,1-.58-4.88c2.36.17,3.68.23,5.34.23,2.24,0,4-.06,6.6-.29.69-2.41,1.1-4.36,1.5-6.43a22.5,22.5,0,0,0,.34-4.65,53.59,53.59,0,0,1,6.72,1.2c.57.12.92.46.92.87a1.42,1.42,0,0,1-.52,1.09,6.47,6.47,0,0,0-.92,2.12c-.4,1.38-.86,3.16-1.37,4.88A63.26,63.26,0,0,0,647.67,10.28Zm1.6,15.39a19.33,19.33,0,0,0-.46-4.08,31.45,31.45,0,0,1,6.26,1.09.88.88,0,0,1,.81.92,7.38,7.38,0,0,1-.35,1.2,6.13,6.13,0,0,0-.23,2.36,74.77,74.77,0,0,0,.63,9.76,45.24,45.24,0,0,1,10.34,5.34c.57.4.63.63.34,1.21A35,35,0,0,1,664,48.12c-.17.28-.34.4-.51.4s-.35-.12-.58-.35a42.79,42.79,0,0,0-7-4.82c0,5.74-4.14,8.38-10.68,8.38-6.32,0-10.57-3.21-10.57-8.15s4.14-8.38,10.62-8.38a29.2,29.2,0,0,1,4.54.34C649.45,31.87,649.33,28.37,649.27,25.67ZM645.2,40.14c-2.87,0-5.11,1.14-5.11,3.33,0,1.83,1.6,2.75,4.88,2.75,3.1,0,5-1.66,5-4.07a7.55,7.55,0,0,0-.05-1.15A14.64,14.64,0,0,0,645.2,40.14Zm10.68-27.62c.34-.58.63-.63,1.2-.4a44.53,44.53,0,0,1,11.26,5.39c.34.23.51.41.51.63a1.26,1.26,0,0,1-.23.69,32.75,32.75,0,0,1-2.41,4.25c-.17.29-.34.4-.51.4a.76.76,0,0,1-.52-.23A49.61,49.61,0,0,0,653.29,17C654.27,15.27,655.13,13.55,655.88,12.52Z"/><path d="M691.77,9a39.88,39.88,0,0,0,.57-6.37,41,41,0,0,1,6.89,1.9,1.16,1.16,0,0,1,.52,2,7.05,7.05,0,0,0-1.15,2.18c-.75,2.35-1.32,4.48-2.07,6.89a44.63,44.63,0,0,1,4.6-.23c5.34,0,8.21,3.73,8.21,11.08,0,6.2-1.15,13.84-3.1,18-1.67,3.68-4.42,5.4-7.75,5.4a15.36,15.36,0,0,1-6-.86,1.54,1.54,0,0,1-1-1.61A16.46,16.46,0,0,0,690.39,42a15.19,15.19,0,0,0,6.6,1.49c1.9,0,2.76-.69,3.68-3a44.53,44.53,0,0,0,2.24-14.3c0-4-.75-5.28-3.28-5.28a38.09,38.09,0,0,0-4.82.4c-3.79,11-7.06,19-11.54,27a.94.94,0,0,1-1.49.52,26.32,26.32,0,0,1-4-2.53,1.2,1.2,0,0,1-.45-.86,1.07,1.07,0,0,1,.22-.63,120.77,120.77,0,0,0,10.51-22.51c-2.24.34-4.07.69-5.62,1a17.34,17.34,0,0,0-3.16.92c-.81.29-1.5.18-1.84-.74a51.36,51.36,0,0,1-1.78-5.92c2.53,0,5-.17,7.58-.4s4.54-.52,6.77-.86C691,13,691.37,11,691.77,9Zm22.73,3.85c.41-.23.69-.11,1.1.29a38.51,38.51,0,0,1,9.53,14,.82.82,0,0,1-.23,1.15,23.25,23.25,0,0,1-4.31,2.87c-.57.29-1.15.23-1.32-.46a38.8,38.8,0,0,0-9.42-14.87A51.11,51.11,0,0,1,714.5,12.86Zm1.56-8c.28-.23.51-.17.86.12a26.46,26.46,0,0,1,5.45,6.14.58.58,0,0,1-.17.92l-2.41,1.78a.6.6,0,0,1-1-.17A28.49,28.49,0,0,0,713,7Zm5.11-3.73c.34-.23.51-.17.86.12a23.82,23.82,0,0,1,5.45,5.91.66.66,0,0,1-.17,1L725,9.93a.58.58,0,0,1-1-.17,27,27,0,0,0-5.75-6.6Z"/><path d="M743.16,16.13c.63.29.92.64.92,1.1a1.76,1.76,0,0,1-.29.86,10.69,10.69,0,0,0-1.15,3,97.09,97.09,0,0,0-1.38,10.45c5.29-5.34,12.18-9.07,19.18-9.07,8.38,0,13.38,4.88,13.38,12.29,0,6.25-3.73,10.39-8.67,12.86-3.85,2-9.76,3.33-14.7,4-1.26.17-1.78.11-2.3-.75a14.7,14.7,0,0,0-3.9-4.88c6.43-.4,11.94-1.49,15.79-3.21,4.65-2,6.77-5,6.77-8.67,0-3.1-1.95-5.92-6.89-5.92s-11.13,3.28-16.53,8.73a15.39,15.39,0,0,0-2.47,3.16c-.35.57-.58.57-1.32.4a41.32,41.32,0,0,1-3.91-1.55c-.57-.23-.8-.34-.8-1.15.34-6.66,1.09-13.43,1.78-18.54a35.89,35.89,0,0,0,.52-5.17A32.66,32.66,0,0,1,743.16,16.13Zm1.43-14.52a1,1,0,0,1,1.09-.29,38,38,0,0,1,11.26,6.83c.29.23.4.41.4.64a1.47,1.47,0,0,1-.29.68,36,36,0,0,1-2.93,4c-.22.29-.45.46-.63.46s-.4-.11-.69-.4a45.85,45.85,0,0,0-11.59-7.46A30.76,30.76,0,0,1,744.59,1.61Z"/><path d="M784.27,38.36a1.19,1.19,0,0,1,.86-.46,1.12,1.12,0,0,1,.75.34,42.79,42.79,0,0,1,11.43,10.51c.34.46.4.63.4.86s-.12.52-.58.92l-3.5,3c-.4.35-.63.52-.8.52s-.52-.11-.81-.57a42.74,42.74,0,0,0-10.85-11c-.34-.23-.51-.4-.51-.57s.11-.35.4-.69Z"/><path d="M24.8,88.92v3.16H10.22v47H6.77V88.92Z"/><path d="M37.38,114.3c-5.05,0-6.72.11-7.06.11-.52,0-.57-.06-.57-.63v-4.13c0-.58.05-.64.57-.64.34,0,2,.12,7.06.12h7.41A35.1,35.1,0,0,0,47,103.67a8.92,8.92,0,0,0,.4-2.52c1.9.34,3.33.8,5,1.2.57.18.69.41.69.81a1,1,0,0,1-.46.86,3,3,0,0,0-.86,1.32c-.64,1.44-1.09,2.47-1.78,3.79,4,0,5.62-.12,6.2-.12s.63.06.63.64v4.13c0,.57-.06.63-.63.63-.35,0-2.07-.11-7.07-.11H46.45a17.21,17.21,0,0,0-.11,3.16v1h1.95c4.88,0,6.55-.12,6.89-.12.58,0,.63.06.63.64v4.07c0,.58-.05.63-.63.63-.34,0-2-.11-6.89-.11h-.4a26.77,26.77,0,0,0,7.35,6,16.43,16.43,0,0,0-2,3.67c-.23.58-.4.92-.69.92s-.63-.23-1.21-.8a28.35,28.35,0,0,1-5.11-6c.06,8,.29,12.51.29,14.52,0,.58-.06.64-.69.64H41.29c-.58,0-.64-.06-.64-.64,0-1.89.18-6.08.23-13.26a45.21,45.21,0,0,1-7.46,9.3c-.57.52-.92.81-1.21.81s-.63-.41-.92-1.15a16.2,16.2,0,0,0-2.23-3.85A35.34,35.34,0,0,0,39.22,123.6H37.78c-4.93,0-6.6.11-6.94.11-.58,0-.64,0-.64-.63V119c0-.58.06-.64.64-.64.34,0,2,.12,6.94.12h3v-1c0-1.33,0-2.3-.06-3.16Zm1-13.78c-4.77,0-6.43.11-6.78.11-.57,0-.63-.06-.63-.63V96c0-.58.06-.63.63-.63.35,0,2,.11,6.78.11H40.6V94a16.21,16.21,0,0,0-.35-3.79c2.07.06,3.91.12,6,.29.58.06.92.23.92.52a2.22,2.22,0,0,1-.34,1A3.91,3.91,0,0,0,46.51,94v1.49h2c4.77,0,6.38-.11,6.72-.11.63,0,.69,0,.69.63v4c0,.57-.06.63-.69.63-.34,0-2-.11-6.72-.11Zm-.86,8.15c-.75.23-1,.17-1.15-.46a23.85,23.85,0,0,0-1.61-5c-.34-.63-.29-.81.52-1l2.93-.86c.68-.17.8-.06,1,.4a24.79,24.79,0,0,1,2.12,5.17c.18.57.06.75-.57.92ZM64.25,114c0,6.66-.4,12.17-1.49,16.59a31.06,31.06,0,0,1-4.94,10.91c-.51.69-.8,1.1-1.2,1.1s-.63-.29-1.27-.81a13.11,13.11,0,0,0-3.73-2.3,26.56,26.56,0,0,0,5.92-11.65c.86-3.56,1.14-8.33,1.14-16.54v-6.26c0-3.38,0-6.43-.34-9.82a28.88,28.88,0,0,1,5.28,1.38,41.16,41.16,0,0,0,9.94-4,16.1,16.1,0,0,0,3-2.12,23.17,23.17,0,0,1,3.73,4.07,1.82,1.82,0,0,1,.4,1.09c0,.35-.34.64-.86.69a6.48,6.48,0,0,0-2.24.69,62.57,62.57,0,0,1-13.38,4.71v7h9.82c5.57,0,7.47-.12,7.81-.12.58,0,.63.06.63.63v4.19c0,.58-.05.63-.63.63-.29,0-1.84-.05-5.8-.11v20.21c0,5.4.12,7.64.12,7.93,0,.63-.06.68-.58.68H70.91c-.57,0-.63-.05-.63-.68,0-.29.12-2.53.12-7.93V114Z"/><path d="M99.86,94c1,.23,1.37.52,1.37,1.09a5.63,5.63,0,0,1-.57,1.9c-.29.8-.52,2.58-.8,7-.58,8.84-.87,14.7-.87,22.22,0,5.8.69,7.12,5.29,7.12,5.11,0,13.09-3.1,20.09-10.56a20.13,20.13,0,0,0,1.32,5.45,3.74,3.74,0,0,1,.46,1.38c0,.52-.23,1-1.15,1.78A32.76,32.76,0,0,1,103.24,140c-7.35,0-10.79-2.92-10.79-11.71,0-9.65.52-17.91.8-24.8.12-3.39.29-7.07-.57-10.51A58,58,0,0,1,99.86,94Z"/><path d="M142.18,100.23c.51.23.92.63.92,1a5.18,5.18,0,0,1-.46,1.61,25.75,25.75,0,0,0-.52,5.63,72.15,72.15,0,0,0,1,13.09c.81,4.54,2.3,8.44,4.71,8.44,1.84,0,3.27-2,5.51-8a22.07,22.07,0,0,0,3.68,4.42,1.75,1.75,0,0,1,.4,2.12c-2.18,5.86-5.74,9-9.76,9-4.48,0-9.19-5.28-10.74-15a104,104,0,0,1-1.38-16.71,30.59,30.59,0,0,0-.69-7.53A25.06,25.06,0,0,1,142.18,100.23Zm26.64,3.62a1.63,1.63,0,0,1,.63-.23.87.87,0,0,1,.63.34,38,38,0,0,1,11.26,19.64c.17.75-.17,1-.63,1.26a19.63,19.63,0,0,1-4.48,2.3c-.69.23-1.09.06-1.21-.63-2-8.21-4.88-14.18-10.74-20C166.47,105.11,167.9,104.31,168.82,103.85Z"/><path d="M233.82,103.5c3.79,0,4.94-.11,5.28-.11.58,0,.69.11.69.69-.06,2-.11,3.61-.11,5.45-.06,9.76-.29,19.41-1.27,26.13-.68,4.25-1.83,6.31-6.25,6.31a22.66,22.66,0,0,1-2.76-.11c-1.09-.12-1.09-.12-1.26-2a13.67,13.67,0,0,0-1.1-3.85,21.75,21.75,0,0,0,3.91.4c1.89,0,2.12-.63,2.58-3.62.86-5.51,1.09-13.55,1.09-24.23H231.7a117.23,117.23,0,0,1-1.78,16.2,41.36,41.36,0,0,1-7.07,16.47c-.4.52-.63.75-.86.75s-.57-.29-1.09-.8a11.67,11.67,0,0,0-3.16-2.53l1.27-1.61a8.08,8.08,0,0,1-1.32.29c-3.62.63-9.36,1.49-14.24,2.07a5.94,5.94,0,0,0-2.19.51,1.43,1.43,0,0,1-.8.29c-.23,0-.46-.34-.57-1-.29-1.2-.52-2.64-.81-4.65,1.67.06,3.16,0,5.11-.11,1.38-.06,2.93-.17,4.54-.35v-3H207c-4.19,0-5.51.12-5.86.12-.57,0-.63-.06-.63-.64v-3.33c0-.57.06-.63.63-.63.35,0,1.67.12,5.86.12h1.78v-2.87h-1.38c-4.31,0-5.74.11-6.09.11-.63,0-.68-.06-.68-.63,0-.4.11-1.67.11-4.65v-5.86c0-3.1-.11-4.36-.11-4.76s0-.58.68-.58c.35,0,1.78.12,6.09.12h1.38v-2.76H206.6c-4.48,0-6,.12-6.31.12-.58,0-.63-.06-.63-.64V101c0-.58.05-.64.63-.64.34,0,1.83.12,6.31.12h2.13V97.88c-1.38.17-2.76.34-4.19.45s-1.5.06-2-1.09a14.19,14.19,0,0,0-1.6-2.81,12.49,12.49,0,0,0-.52,1.49,85.71,85.71,0,0,1-3.33,8.73v28.83c0,5.56.12,8.38.12,8.67,0,.57-.06.63-.64.63h-4.3c-.58,0-.64-.06-.64-.63,0-.35.12-3.11.12-8.67V120.56c0-2,.06-4.31.12-6.61l-2.3,3.16c-.4.52-.75.86-1,.86s-.4-.34-.57-1a21.43,21.43,0,0,0-1.49-5.23c4.53-5.74,6.77-11.14,8.78-17.57a22.21,22.21,0,0,0,.86-4.07,44,44,0,0,1,5.17,1.66c.58.23.92.46.92.86s-.23.69-.69,1.09a1.71,1.71,0,0,0-.4.46,90.53,90.53,0,0,0,14.93-2,9.28,9.28,0,0,0,2.47-1,29.55,29.55,0,0,1,2.93,3.27,1.69,1.69,0,0,1,.34,1c0,.46-.29.63-.75.63a10.18,10.18,0,0,0-1.72.17c-1.95.4-3.9.75-6,1v3.22H215c4.48,0,6-.12,6.31-.12.52,0,.58.06.58.64v3.38c0,.58-.06.64-.58.64-.34,0-1.83-.12-6.31-.12h-1.61v2.76h1.44c4.3,0,5.74-.12,6.08-.12.63,0,.69.06.69.58,0,.34-.11,1.66-.11,4.76v5.86c0,3,.11,4.31.11,4.65,0,.57-.06.63-.69.63-.34,0-1.78-.11-6.08-.11h-1.44v2.87h.75c4.19,0,5.51-.12,5.85-.12.63,0,.69.06.69.63v3.33c0,.58-.06.64-.69.64-.34,0-1.66-.12-5.85-.12h-.75v2.53c2.07-.29,4.36-.63,6.72-1a23.16,23.16,0,0,0-.46,2.59l-.17,1.15A35.91,35.91,0,0,0,225,123.2a91.47,91.47,0,0,0,1.55-14.59c-2.3.06-3.1.12-3.39.12-.57,0-.63-.06-.63-.63V104c0-.57.06-.63.63-.63.29,0,1.15.11,3.5.11.06-1.43.06-2.93.06-4.42a61.8,61.8,0,0,0-.4-8.15c1.72.06,4,.23,5.34.4.57.12.92.34.92.63a10.18,10.18,0,0,1-.4,1.49,30.59,30.59,0,0,0-.29,5.86c0,1.44,0,2.81-.06,4.19ZM208.73,114v-2.87h-3.68V114Zm0,6.32v-3h-3.68v3Zm4.65-9.19V114h3.73v-2.87Zm3.73,6.2h-3.73v3h3.73Z"/><path d="M261.27,96.38a14.52,14.52,0,0,0-2-3.67,40.82,40.82,0,0,1,6.95-.63c.8,0,1.26.46,1.26,1,0,.34-.11.75-.11,1.09a9.61,9.61,0,0,0,.23,1.72c.4,1.5.57,2,.91,3a89.63,89.63,0,0,0,11.72-3c.51-.23.8-.18,1,.28.35,1.09.75,2.7,1,3.85a.87.87,0,0,1-.69,1c-3.85,1.21-7.35,2.07-11.25,2.93.51,1.44,1.26,3.22,2,4.83a68.37,68.37,0,0,0,10.45-3c.57-.29.86-.17,1,.34a21.06,21.06,0,0,1,1,3.79c.12.52.12.81-.46,1a70.66,70.66,0,0,1-9.7,2.81,42.7,42.7,0,0,0,7.52,9.93c.58.52.58.75.29,1.38a16.9,16.9,0,0,1-2.35,3.56c-.35.4-.58.58-.92.58a1.57,1.57,0,0,1-.81-.35,14.9,14.9,0,0,0-3.38-1.84,28,28,0,0,0-10.8-1.83c-5.4,0-8.56,1.66-8.56,4.36,0,3.73,4.89,4.94,13.67,4.94,2.13,0,4.25-.23,6.32-.35.57,0,.74.29.69.75a38.28,38.28,0,0,1-1.15,5.23c-.17.57-.4.8-1.21.86-1.32.11-2.7.17-4.13.17-13.21,0-20.21-3.73-20.21-10.79,0-6.15,5.28-10,14.24-10,4.19,0,7.58.46,9.87,1.44a66.84,66.84,0,0,1-4.76-6.78,136.75,136.75,0,0,1-15.74,1.73c-.63,0-.86-.23-1-.81a29.24,29.24,0,0,1-1-4.71,99.65,99.65,0,0,0,15.44-1.43c-.57-1.21-1.43-3.16-2.18-4.77a98.87,98.87,0,0,1-14,1.38c-.69,0-1-.23-1.15-.8s-.57-2.76-.92-4.6a102,102,0,0,0,14.3-.91C262.19,98.79,261.84,97.82,261.27,96.38Z"/><path d="M300.78,105.57c-5.11,0-6.84.11-7.24.11-.57,0-.63-.05-.63-.68v-4.66c0-.63.06-.68.63-.68.4,0,2.13.11,7.24.11h14.06V96a28.46,28.46,0,0,0-.4-5.63c2.07,0,4.31.12,6.26.29.58.06.92.29.92.63a3.59,3.59,0,0,1-.34,1.21c-.23.46-.35,1.2-.35,3.33v3.9H336c5.17,0,6.89-.11,7.24-.11.51,0,.57,0,.57.68V105c0,.63-.06.68-.57.68-.35,0-2.07-.11-7.24-.11H316.17c-.06,2.53-.23,4.88-.46,7.06h14.06c4.83,0,6.43-.11,6.78-.11.57,0,.69.17.69.8-.12,1.49-.17,3-.23,4.48-.46,8.56-1.15,13.9-1.9,17-1.26,5.46-3.5,7.12-9.24,7.12-1,0-2.64,0-4.54-.11-1.61-.12-1.61-.23-1.83-2.07a12.6,12.6,0,0,0-1.27-4.42,56.4,56.4,0,0,0,7.06.52c1.9,0,2.88-.92,3.39-2.87.86-2.87,1.49-8.16,1.78-14.59H314.84c-2.18,10.62-7.06,17.34-16.82,23.14-.75.4-1.09.63-1.38.63s-.63-.4-1.15-1.26a12.34,12.34,0,0,0-3.44-3.5c13.21-6.49,17.51-14.41,17.63-31.87Z"/><path d="M349.3,143.93v-3.16h14.58v-47h3.45v50.13Z"/><path d="M407.93,130c0,.63-.35.92-1.1,1a32,32,0,0,1-4.07.28c-.52,0-.75-.34-.75-.91,0-2.07,0-4.94.06-7-5.11,2.64-6.95,4.88-6.95,7.64,0,2.41,1.95,4,8,4a98.4,98.4,0,0,0,14.3-1.15c.52-.06.75.11.8.63a25.44,25.44,0,0,1,.52,4.71c.06.69-.17,1.09-.63,1.09a102.37,102.37,0,0,1-14.24.75c-9.42,0-14.41-2.82-14.41-9.48,0-5.51,3.44-9.53,12.11-14-.17-2.93-.86-4.07-3.44-4s-5.29,1.84-7.93,4.14a77.67,77.67,0,0,0-5.74,6.25c-.29.35-.46.52-.69.52a1.14,1.14,0,0,1-.63-.4,27.84,27.84,0,0,1-3.27-3.79.88.88,0,0,1-.23-.52c0-.23.11-.4.4-.63a58.69,58.69,0,0,0,12-14.24c-2.7.12-5.8.17-9.19.17-.51,0-.69-.28-.8-.92-.17-.91-.4-3-.57-4.76a126.35,126.35,0,0,0,13.2-.06,43.75,43.75,0,0,0,1.72-4.94,13.85,13.85,0,0,0,.41-3.5,35.59,35.59,0,0,1,6.54,1.61,1,1,0,0,1,.69,1,1.11,1.11,0,0,1-.4.87,4.35,4.35,0,0,0-1,1.37c-.34.81-.63,1.55-1.32,3.1A90.5,90.5,0,0,0,411.77,97c.63-.11.81.06.92.58a19.33,19.33,0,0,1,.58,4.13c.05.58-.18.81-1,.92-4.31.63-9.25,1.26-13.44,1.72a59.52,59.52,0,0,1-4.3,6.38l.05.11a11.52,11.52,0,0,1,5.75-1.78c3.79,0,6.43,1.72,7,6.2,2.24-1,5.51-2.52,8.44-4a17.09,17.09,0,0,0,4.37-3.1,35,35,0,0,1,4,5.06,2.19,2.19,0,0,1,.46,1.26c0,.46-.28.69-.86.8a19.24,19.24,0,0,0-3.5.86c-3.73,1.33-7.46,2.59-12.34,4.6Z"/><path d="M444.39,129.74c1.21,2.42,2.41,3.85,4.77,4.83,2,.8,5.56,1.09,10.56,1.09,7.41,0,16.14-.46,24.69-1.32a11.22,11.22,0,0,0-1.55,4.53c-.29,1.84-.29,1.84-2.12,2-7.3.34-14.13.51-20.1.51s-11-.34-13.38-1.55a15.2,15.2,0,0,1-6-5.22c-1.78,1.72-4,3.61-5.8,5.11a5.06,5.06,0,0,0-1.15,1.15,1,1,0,0,1-.86.51,1.09,1.09,0,0,1-.8-.69,50.3,50.3,0,0,1-2.36-5.39,27.49,27.49,0,0,0,3.39-1.78,31.72,31.72,0,0,0,5.05-3.74V117.05H436c-3.1,0-3.91.12-4.19.12-.63,0-.69-.06-.69-.69v-4.36c0-.58.06-.64.69-.64.28,0,1.09.12,4.19.12h3.62c3,0,4-.12,4.3-.12.58,0,.63.06.63.64,0,.34-.11,1.95-.11,5.45ZM436,92.13c.34-.23.52-.34.69-.34a1,1,0,0,1,.57.29,43.86,43.86,0,0,1,7.18,8.55c.34.46.29.58-.35,1l-3.27,2.75c-.34.29-.51.4-.69.4s-.34-.17-.51-.46a43.63,43.63,0,0,0-7-9c-.46-.41-.34-.58.29-1Zm35,23.72c5,0,7.29-.12,7.63-.12.58,0,.64.06.64.69,0,.35-.12,1.72-.12,4.77v4.94c0,3.1.12,4.42.12,4.76,0,.58-.06.63-.64.63-.34,0-2.64-.11-7.63-.11H458.17c-5.05,0-7.69.11-8,.11-.57,0-.63-.05-.63-.63,0-.4.11-2.87.11-7.92v-18c0-5-.11-7.7-.11-8,0-.63.06-.69.63-.69.35,0,2.87.12,7.87.12h.34a30.87,30.87,0,0,0,1.78-3.68,11.72,11.72,0,0,0,.81-2.87,44.12,44.12,0,0,1,5.91.92c.46.11.75.4.75.69a.91.91,0,0,1-.46.86,3.46,3.46,0,0,0-1,1.2c-.4.87-.86,1.84-1.43,2.88h4.65c4.65,0,6.83-.12,7.18-.12.57,0,.63.06.63.69,0,.34-.12,1.66-.12,4.65v4.59c0,3,.12,4.37.12,4.71,0,.58-.06.63-.63.63-.35,0-2.53-.11-7.18-.11H455.47v4.48Zm.28-14.7H455.47v5.34H471.2Zm2.07,19.58h-17.8v5.8h17.8Z"/><path d="M497.1,106.2c-5.22,0-7,.12-7.35.12-.57,0-.57-.06-.57-.64v-4.47c0-.64,0-.69.57-.69.35,0,2.13.11,7.35.11h14v-3.5a38.76,38.76,0,0,0-.4-6.95c2.13.06,4.25.17,6.26.4.57.06.8.35.8.63a4.67,4.67,0,0,1-.28,1.5,18.2,18.2,0,0,0-.29,4.3v3.62H531c5.23,0,7-.11,7.35-.11.57,0,.63,0,.63.69v4.47c0,.58-.06.64-.63.64-.34,0-2.12-.12-7.35-.12H517.72a41.32,41.32,0,0,0,4.76,10.45,54.15,54.15,0,0,0,6.26-6.31,13.15,13.15,0,0,0,1.84-2.76,38,38,0,0,1,4.48,3.27c.57.52.69.81.69,1.15s-.35.69-.81.92a12,12,0,0,0-2.93,2.35,64.62,64.62,0,0,1-6.43,5.75,46.12,46.12,0,0,0,14.82,11.65,19.61,19.61,0,0,0-3.1,4.14c-.52.91-.75,1.32-1.09,1.32a3.66,3.66,0,0,1-1.33-.69,41.85,41.85,0,0,1-18-22.74c.17,7.29.4,14.53.4,21.07,0,2.64-.45,4.19-2.18,5.23-1.38.86-3.21,1.2-7.92,1.26-1.78.06-1.67,0-2.18-1.72a13.19,13.19,0,0,0-2.13-4.42c1.84.17,3.27.28,4.48.28,3,0,3.73-.34,3.73-2.18v-28Zm11.54,18c.41,1.78.41,1.78-1,2.87a114.46,114.46,0,0,1-12.52,8.1,9.56,9.56,0,0,0-1.66,1.15c-.35.4-.63.57-.92.57s-.63-.29-.86-.75a45.44,45.44,0,0,1-2.47-5.22,32,32,0,0,0,4.65-1.9,94.63,94.63,0,0,0,14.24-8.9A30.37,30.37,0,0,0,508.64,124.23ZM496.7,108.44c.52-.52.63-.57,1.15-.23a47.77,47.77,0,0,1,7.92,7.06c.23.23.35.41.35.58s-.12.28-.35.57l-3.15,3.22c-.58.57-.75.74-1.15.23a40.89,40.89,0,0,0-7.64-7.52c-.29-.23-.4-.35-.4-.46s.17-.35.52-.69ZM525.41,90.7c.52-.4.69-.35,1.32,0a39.88,39.88,0,0,1,6.37,5.51c.35.29.41.58-.34,1.15L530,99.66a1.43,1.43,0,0,1-.68.4c-.18,0-.35-.17-.58-.46a35.76,35.76,0,0,0-6.09-5.74c-.45-.35-.45-.46.18-1Z"/><path d="M558.43,94c1,.23,1.38.52,1.38,1.09a5.65,5.65,0,0,1-.58,1.9c-.28.8-.51,2.58-.8,7-.58,8.84-.86,14.7-.86,22.22,0,5.8.69,7.12,5.28,7.12,5.11,0,13.09-3.1,20.1-10.56a19.76,19.76,0,0,0,1.32,5.45,4,4,0,0,1,.46,1.38c0,.52-.23,1-1.15,1.78A32.78,32.78,0,0,1,561.82,140c-7.35,0-10.8-2.92-10.8-11.71,0-9.65.52-17.91.81-24.8.11-3.39.28-7.07-.58-10.51A58,58,0,0,1,558.43,94Z"/><path d="M592.88,128.25a1.25,1.25,0,0,1,.87-.46,1.14,1.14,0,0,1,.74.35,42.75,42.75,0,0,1,11.43,10.5c.34.46.4.63.4.86s-.11.52-.57.92l-3.51,3c-.4.34-.63.52-.8.52s-.52-.12-.81-.58a42.9,42.9,0,0,0-10.85-11c-.34-.22-.51-.4-.51-.57s.11-.34.4-.69Z"/><path d="M655.82,103a.48.48,0,0,1,.68.35,39.09,39.09,0,0,1,1.38,4.88c.12.63-.11.74-.46.86a85.77,85.77,0,0,1-14.52,2.58c.11,4.65.4,7.81,1,13.27a67.3,67.3,0,0,1,16.65,7.4c.41.23.46.52.23,1a25.73,25.73,0,0,1-3,4.82c-.34.35-.52.52-1,.18A53.44,53.44,0,0,0,644,131.12a10.56,10.56,0,0,1-.06,1.32c-.23,4.94-3.9,8.61-11.6,8.61-7.06,0-12.23-3.15-12.23-8.44s5.46-8.78,12.58-8.78a40.54,40.54,0,0,1,4.82.17c-.69-7.52-.86-13-1-18.43,0-2.07-.11-5-.17-7.92a17.12,17.12,0,0,0-.8-5.23,53.28,53.28,0,0,1,7.35,1c.63.18.92.52.92,1a1.73,1.73,0,0,1-.29.86,7,7,0,0,0-.69,3.1c-.12,1.73-.12,4.25-.12,7.24A55.71,55.71,0,0,0,655.82,103Zm-18.21,26.53a26.84,26.84,0,0,0-5.28-.57c-4,0-6.6,1.32-6.6,3.38s2.3,2.93,5.91,2.93c4.31,0,6.2-2.52,6-4.93Z"/><path d="M681,94.09c.74.28,1.09.63,1.09,1.14a1.33,1.33,0,0,1-.4.92,6.77,6.77,0,0,0-1,2.7c-.8,3.91-1.26,8-1.6,11a57.89,57.89,0,0,0-.18,6.31c1.27-2.23,2.47-4.42,4-7.34a12,12,0,0,0,1.78,3.73,1.31,1.31,0,0,1,.35.92,2.67,2.67,0,0,1-.58,1.43,47.11,47.11,0,0,0-3.38,7.35,6.92,6.92,0,0,0-.29,1.72.8.8,0,0,1-.75.92c-.69.18-3.16.52-4.59.69-.4.06-.69-.34-.81-.74a37,37,0,0,1-1.72-11.66,120.61,120.61,0,0,1,1.38-14.3,53,53,0,0,0,.46-6.54A29.65,29.65,0,0,1,681,94.09Zm18.66-1c1.15.29,1.26.57,1.15,1.55a19.44,19.44,0,0,0-.12,2.64c.41,5.46.81,10.68.81,14.82,0,8.15-1.32,15.21-4.37,19.92a31.51,31.51,0,0,1-9.47,9.24,2,2,0,0,1-1.15.41,1.65,1.65,0,0,1-1.2-.64,13.46,13.46,0,0,0-4.89-2.64c4.65-2.58,7.47-4.65,9.77-7.69,3.33-4.54,4.82-9.25,4.82-18.32,0-4.07-.29-10.05-.69-13.72a27.25,27.25,0,0,0-1.21-6.26A33.55,33.55,0,0,1,699.63,93.11Z"/><path d="M719.27,142.38c-.57,0-.63-.06-.63-.64,0-.34.11-3.38.11-18.71V112.4c0-10.68-.11-13.84-.11-14.24,0-.57.06-.63.63-.63.4,0,2.41.12,8,.12H731a37.69,37.69,0,0,0,2.13-5.4,13.84,13.84,0,0,0,.63-2.7c2,.17,4.48.57,6.14.86.52.12.81.46.81.75a1.16,1.16,0,0,1-.46.8,3.92,3.92,0,0,0-.86,1.38,46.84,46.84,0,0,1-2,4.31h11.19c5.57,0,7.58-.12,8-.12.58,0,.64.06.64.63,0,.35-.12,3.56-.12,12.69V123c0,15.33.12,18.37.12,18.66,0,.57-.06.63-.64.63h-5.11c-.57,0-.63-.06-.63-.63V139H724.9v2.7c0,.58-.06.64-.63.64Zm5.63-33h25.89v-6.26H724.9Zm25.89,11.83v-6.44H724.9v6.44Zm0,12.28v-6.89H724.9v6.89Z"/><path d="M773.13,142.43c-.57,0-.63-.05-.63-.57s.11-3,.11-16.77v-10c0-9.76-.11-12.52-.11-12.86,0-.57.06-.63.63-.63.4,0,2.3.11,7.81.11h10.68v-3a52.14,52.14,0,0,0-.46-8.27c2.18.06,4.42.17,6.43.4a.79.79,0,0,1,.86.69,5.37,5.37,0,0,1-.34,1.38,28,28,0,0,0-.29,5.74v3.1h11.43c5.51,0,7.4-.11,7.81-.11.57,0,.63.06.63.63,0,.34-.12,3.1-.12,11.54V125c0,13.66.12,16.3.12,16.65,0,.52-.06.57-.63.57h-5c-.57,0-.63,0-.63-.57v-2.41H778.7v2.64c0,.52-.06.57-.63.57Zm5.57-25h12.92V107.29H778.7Zm12.92,16.25v-10.8H778.7v10.8Zm6.2-26.36V117.4h13.61V107.29Zm13.61,26.36v-10.8H797.82v10.8Z"/><path d="M839.17,96.61c1,.52,1.32.86,1.32,1.38s-.12.57-.87,1.72a13.62,13.62,0,0,0-1.37,4.08,92.83,92.83,0,0,0-2.41,18.55,55.31,55.31,0,0,0,.34,6.71c1.21-2.64,2.24-4.53,3.9-8.55a15.31,15.31,0,0,0,2,3.62,2.15,2.15,0,0,1,.41.86,1.62,1.62,0,0,1-.29.92,55.66,55.66,0,0,0-3.27,8.67,6.2,6.2,0,0,0-.18,1.78c0,.69.12,1.15.12,1.6s-.23.64-.75.75a28.28,28.28,0,0,1-4.71.92c-.4.06-.63-.23-.74-.63-1.61-4-2.64-11.31-2.64-17.11A109.72,109.72,0,0,1,832,103a45.92,45.92,0,0,0,1-8.55A25.37,25.37,0,0,1,839.17,96.61Zm12.28,27.05c.46-.06.58.23.58.86.34,4,3.1,5.4,9.36,5.4a82.06,82.06,0,0,0,11-.75c.58-.06.69,0,.81.75a42.9,42.9,0,0,1,.34,4.93c0,.69,0,.75-1,.86a77.26,77.26,0,0,1-9.36.64c-8.5,0-12.46-1.38-14.93-4.77-1.44-1.84-2-4.77-2-7.46Zm-3.21-21.48c.06-.69.23-.86.8-1a90.46,90.46,0,0,1,12.46-1c3.45,0,6.09.12,8.5.35,1.21,0,1.32.17,1.32.74,0,1.73,0,3.28-.11,4.88-.06.52-.23.75-.75.69-3.45-.23-6.43-.34-9.36-.34a69.76,69.76,0,0,0-13,1.32C848.12,104.59,848.12,103.16,848.24,102.18Z"/><path d="M17.28,200.29c-2.87.23-5.8.46-9.64.46-1,0-1.27-.35-1.38-1.21-.17-1.09-.4-3-.63-5a29.22,29.22,0,0,0,4.48.28c2.41,0,4.88-.23,7.29-.46,0-1.89.06-4.07.06-6.54a20.9,20.9,0,0,0-.41-4.65,32.47,32.47,0,0,1,6.84,1c.69.17,1.14.58,1.14,1.09a2,2,0,0,1-.34.92,7,7,0,0,0-.8,2.24c-.18,1.49-.23,2.93-.29,4.77A56.93,56.93,0,0,0,31,191.1c.52-.17.92-.06,1,.52a28.71,28.71,0,0,1,.35,4.48c0,.57-.17.74-.75.92a59.27,59.27,0,0,1-8.21,2.18c-.06,2.75-.06,5.57-.11,8.32a36.25,36.25,0,0,1,14.12-3.15c7.12,0,12.23,4.59,12.23,11.48,0,7.35-4.71,11.65-12.46,11.65a22.18,22.18,0,0,1-4.71-.51,1.55,1.55,0,0,1-1.26-1.72,10.06,10.06,0,0,0-1.72-4.89,21.38,21.38,0,0,0,7.18,1c3.21,0,6.2-1.84,6.2-5.92,0-3.73-2.3-5.79-6.32-5.79-3.27,0-7.23.86-13.15,3.9.06,2.41.12,4.36.23,6.89S24,226.64,24,228c0,.81.12,1.67-.86,1.9a23.91,23.91,0,0,1-4.25.69c-.63.06-.86-.4-1.38-1.15a35.34,35.34,0,0,0-8.15-7.35,10.32,10.32,0,0,0-1.84,1.26,1.44,1.44,0,0,1-1,.41,1.64,1.64,0,0,1-1.27-.92c-.63-1-1.78-3.45-2.64-5.34a21.52,21.52,0,0,0,5.28-2c2.47-1.38,5.17-2.93,9.36-5.34ZM11.94,220a57.57,57.57,0,0,0,5.4,2.58c.46.12.63.06.58-.45-.12-1.5-.24-4.14-.35-6C16,217.23,14,218.55,11.94,220ZM39.39,189.9c.4-.64.57-.81,1-.69a27.34,27.34,0,0,1,12.17,7c.23.23.34.4.34.58a1.41,1.41,0,0,1-.23.57c-.74,1.15-2.24,2.93-3.1,4.08-.17.23-1,.28-1.15,0-3-3.39-7.06-5.52-11.65-7.07A33.61,33.61,0,0,1,39.39,189.9Z"/><path d="M74.94,217.86c0,5.28,2.29,7.35,7.63,7.35,6.72,0,10.45-2.59,10.45-7.75,0-3.22-.8-5.86-5.17-10.45a18.38,18.38,0,0,0,5.86-.35,1.33,1.33,0,0,1,1.21.23,15,15,0,0,1,4.88,10.8c0,8.15-6.66,13.43-16.54,13.43-10.16,0-14.47-4.59-14.47-13,0-1.21.17-2.82.4-5.4A46.66,46.66,0,0,1,61.38,211c-.4-.12-.57-.41-.63-1.1a32.81,32.81,0,0,1-.11-5.34,35.42,35.42,0,0,0,9.3,2.24c.29-2.12.75-5.85,1-8.21a40.21,40.21,0,0,1-8.27-1.6c-.69-.18-.92-.46-.92-1-.06-1.38-.17-3.27-.17-5.34A46.69,46.69,0,0,0,72,192.88c.46-3.33.63-4.88.75-6.6a27.64,27.64,0,0,0-.06-4.82,34.33,34.33,0,0,1,6.89,1.6c.8.29,1.26.81,1.26,1.32a1.64,1.64,0,0,1-.46,1.09,5.66,5.66,0,0,0-1,2.47c-.29,1.32-.63,3.28-.92,5.4a33.12,33.12,0,0,0,7.06-.34c.4,0,.58.28.58.69a27.91,27.91,0,0,1-.12,4.3c0,.63-.23.81-.92.86a55.63,55.63,0,0,1-7.63.29c-.35,2-.92,5.91-1.27,8.21,3,.06,5.4,0,8.16-.17.74-.12.92.11.92.63a39.47,39.47,0,0,1-.29,4.31c-.06.69-.23.92-.81.92-2.87.23-5.85.23-8.78.17A34.69,34.69,0,0,0,74.94,217.86Z"/><path d="M119.84,183.87c1,.23,1.38.51,1.38,1.09a5.53,5.53,0,0,1-.58,1.89c-.28.81-.51,2.59-.8,7-.58,8.84-.86,14.7-.86,22.22,0,5.8.69,7.12,5.28,7.12,5.11,0,13.09-3.1,20.1-10.57a19.75,19.75,0,0,0,1.32,5.46,3.89,3.89,0,0,1,.46,1.38c0,.51-.23,1-1.15,1.78a32.82,32.82,0,0,1-21.76,8.61c-7.35,0-10.8-2.93-10.8-11.71,0-9.65.52-17.92.81-24.81.11-3.39.28-7.06-.58-10.51A59.8,59.8,0,0,1,119.84,183.87Z"/><path d="M170.2,204.31A23.29,23.29,0,0,1,182,201c8.21,0,13.84,5.28,13.84,13,0,9.36-8.16,15.56-22.28,17.68-1.15.23-1.67.29-2.24-.8a12.41,12.41,0,0,0-4-4.36c13.89-1.78,21.53-6.26,21.53-13.27,0-4.71-3.5-7.06-8.27-7.06-6.31,0-12.69,3-17.51,7.35a57.73,57.73,0,0,0-5.63,5.68,1.46,1.46,0,0,1-.92.64,1.06,1.06,0,0,1-.74-.41,27.49,27.49,0,0,1-3.33-3.5c-.23-.29-.41-.52-.41-.69a1,1,0,0,1,.46-.69c4.2-3.84,7.07-6.83,10.51-10.45,3.27-3.56,7.64-8.49,13.27-15.16-4,.81-7.18,1.5-11,2.3a19.58,19.58,0,0,0-2.24.75,2.56,2.56,0,0,1-1.21.4c-.4,0-.8-.35-1.14-1.09a32.84,32.84,0,0,1-2.24-6.09,66.2,66.2,0,0,0,7.58-.34c3.5-.4,8-1,11.08-1.61a6.64,6.64,0,0,0,3.1-1,1.46,1.46,0,0,1,2.06.05,17.36,17.36,0,0,1,3.85,3.85,1.57,1.57,0,0,1,.4,1,2,2,0,0,1-1.2,1.61,12.59,12.59,0,0,0-2.24,1.84c-4.48,4.71-8.61,8.78-13.15,13.38Z"/><path d="M233.42,185.88a1.4,1.4,0,0,1,.46.91,1.17,1.17,0,0,1-.8,1.1,10.78,10.78,0,0,0-2.76,2c-4.94,4.42-11.25,10.33-15.68,14.92-.51.64-.74,1-.74,1.27s.23.63.74,1A159,159,0,0,1,236,225.21a1.41,1.41,0,0,1,.41.75c0,.22-.12.4-.41.68-1.32,1.44-3,3.1-4,4-.34.28-.57.46-.8.46s-.4-.18-.69-.52a144.47,144.47,0,0,0-20.9-19.41c-2.18-1.66-3-2.93-3-4.82s1-3.16,2.81-5.06c4.88-5.28,9.65-10,14.58-15.44a16.38,16.38,0,0,0,3.1-4.31A46.14,46.14,0,0,1,233.42,185.88Z"/><path d="M290.27,193.4c3.79,0,4.94-.12,5.28-.12.57,0,.69.12.69.69-.06,1.95-.12,3.62-.12,5.46-.05,9.76-.28,19.4-1.26,26.12-.69,4.25-1.84,6.32-6.26,6.32a20.64,20.64,0,0,1-2.75-.12c-1.1-.11-1.1-.11-1.27-1.95a13.36,13.36,0,0,0-1.09-3.84,22.53,22.53,0,0,0,3.91.4c1.89,0,2.12-.63,2.58-3.62.86-5.51,1.09-13.55,1.09-24.23h-2.93a114.08,114.08,0,0,1-1.78,16.19,41.24,41.24,0,0,1-7.06,16.48c-.4.52-.63.75-.86.75s-.58-.29-1.09-.81a12,12,0,0,0-3.16-2.52l1.26-1.61a9,9,0,0,1-1.32.29c-3.62.63-9.36,1.49-14.24,2.06a6,6,0,0,0-2.18.52,1.51,1.51,0,0,1-.8.29c-.23,0-.46-.35-.58-1-.29-1.21-.51-2.64-.8-4.65a50.24,50.24,0,0,0,5.11-.12c1.38-.05,2.93-.17,4.53-.34v-3h-1.78c-4.19,0-5.51.11-5.85.11-.58,0-.63-.06-.63-.63v-3.33c0-.57,0-.63.63-.63.34,0,1.66.11,5.85.11h1.78v-2.87H263.8c-4.31,0-5.75.12-6.09.12-.63,0-.69-.06-.69-.63,0-.41.12-1.67.12-4.66v-5.85c0-3.1-.12-4.37-.12-4.77s.06-.57.69-.57c.34,0,1.78.11,6.09.11h1.37v-2.75h-2.12c-4.48,0-6,.11-6.32.11-.57,0-.63-.06-.63-.63v-3.39c0-.57.06-.63.63-.63.35,0,1.84.12,6.32.12h2.12v-2.59c-1.37.17-2.75.35-4.19.46s-1.49.06-2-1.09a13.63,13.63,0,0,0-1.61-2.81,14.22,14.22,0,0,0-.51,1.49,89.1,89.1,0,0,1-3.33,8.73v28.82c0,5.57.11,8.38.11,8.67,0,.58-.06.63-.63.63h-4.31c-.57,0-.63,0-.63-.63,0-.34.12-3.1.12-8.67V210.45c0-1.95,0-4.3.11-6.6l-2.3,3.16c-.4.51-.74.86-1,.86s-.4-.35-.57-1a21.29,21.29,0,0,0-1.5-5.22c4.54-5.74,6.78-11.14,8.79-17.57a22.14,22.14,0,0,0,.86-4.08,46,46,0,0,1,5.17,1.67c.57.23.92.46.92.86s-.23.69-.69,1.09a1.44,1.44,0,0,0-.4.46,91.48,91.48,0,0,0,14.92-2,9.17,9.17,0,0,0,2.47-1,28.49,28.49,0,0,1,2.93,3.28,1.67,1.67,0,0,1,.35,1c0,.46-.29.63-.75.63a9.23,9.23,0,0,0-1.72.18c-2,.4-3.91.74-6,1v3.22h1.6c4.48,0,6-.12,6.32-.12.52,0,.57.06.57.63v3.39c0,.57-.05.63-.57.63-.34,0-1.84-.11-6.32-.11h-1.6v2.75h1.43c4.31,0,5.74-.11,6.09-.11.63,0,.69.05.69.57,0,.35-.12,1.67-.12,4.77v5.85c0,3,.12,4.31.12,4.66,0,.57-.06.63-.69.63-.35,0-1.78-.12-6.09-.12h-1.43v2.87h.74c4.19,0,5.51-.11,5.86-.11.63,0,.69.06.69.63v3.33c0,.57-.06.63-.69.63-.35,0-1.67-.11-5.86-.11h-.74v2.52c2.06-.28,4.36-.63,6.71-1a26,26,0,0,0-.46,2.58l-.17,1.15a35.44,35.44,0,0,0,5.51-13.15A88.94,88.94,0,0,0,283,198.51c-2.29.06-3.1.11-3.38.11-.58,0-.63-.05-.63-.63v-4.07c0-.58.05-.64.63-.64.28,0,1.15.12,3.5.12.06-1.44.06-2.93.06-4.42a63.76,63.76,0,0,0-.4-8.16c1.72.06,4,.23,5.33.41.58.11.92.34.92.63a9.06,9.06,0,0,1-.4,1.49,31.48,31.48,0,0,0-.29,5.86c0,1.43,0,2.81-.05,4.19Zm-25.1,10.51V201H261.5v2.87Zm0,6.31v-3H261.5v3Zm4.66-9.18v2.87h3.73V201Zm3.73,6.2h-3.73v3h3.73Z"/><path d="M314.9,226.53c0,.4-.17.57-.74.8a14.11,14.11,0,0,1-4,1.21c-.68.11-1-.06-1.32-.75-1.83-3.67-3.38-11.83-3.38-17.8a130.12,130.12,0,0,1,1.72-18.37,62.87,62.87,0,0,0,.63-8.56,28.42,28.42,0,0,1,6,2c.92.46,1.26.86,1.26,1.27a2.07,2.07,0,0,1-.34,1.14,32.15,32.15,0,0,0-1.09,4.25c-1.09,6.2-2.18,12.18-2.18,17.23a48.82,48.82,0,0,0,.57,9.07c1.44-3,2.47-5,3.85-8.21a16.83,16.83,0,0,0,1.89,3.85,1.68,1.68,0,0,1,.52,1.09,4.37,4.37,0,0,1-.69,1.89,42.86,42.86,0,0,0-2.58,7,6.72,6.72,0,0,0-.18,1.49Zm19.87-26c-3,.23-5.23.34-6.89.34-1.21.06-2.7.06-4.82,0-.81,0-1.27-.28-1.32-.92-.23-1.14-.35-2.69-.64-5.22,2.13.23,5,.29,7.12.29,1.61,0,4.31-.06,6.38-.23-.12-2.87-.12-5.46-.35-7.64a18.12,18.12,0,0,0-1-4.71,34.58,34.58,0,0,1,7.4.81c.64.17.92.45.92.91a2.28,2.28,0,0,1-.4,1.15,7.1,7.1,0,0,0-.29,2.41v6.38c2.47-.35,4.94-.75,7.35-1.27.69-.17,1,0,1,.52.23,1.44.34,2.81.46,4.31.05.74-.23,1-.75,1-2.76.52-5.28.86-7.92,1.15l.05,8.84A30,30,0,0,1,338.62,222a20.16,20.16,0,0,1-8.21,8.9,2.63,2.63,0,0,1-1.44.52,1.19,1.19,0,0,1-1.15-.52,18.72,18.72,0,0,0-4.48-2.81c5.4-2.87,8-5.51,9.71-9.53,1.26-2.93,1.83-6.84,1.78-12.81Z"/><path d="M373.82,204.08a17.24,17.24,0,0,1,9.13-2.59c8.38,0,14.24,5.52,14.24,13.78,0,9.59-7.75,15.74-20,15.74-7.24,0-11.6-3.1-11.6-8.44,0-3.85,3.62-7,8.1-7,5.39,0,9.35,2.87,10.79,8.39,4-1.84,5.86-4.37,5.86-8.73,0-5.23-3.68-8.67-9-8.67-4.76,0-10,2.12-14.7,6.08-1.66,1.5-3.27,3.16-5,4.88-.4.41-.69.64-1,.64a1.43,1.43,0,0,1-.86-.52,25.8,25.8,0,0,1-3.39-3.73c-.34-.46-.17-.86.29-1.32a139.56,139.56,0,0,0,13.61-12.69c3.56-3.68,6.26-6.55,8.9-9.82-3.45.63-7.52,1.43-11.08,2.18a16.64,16.64,0,0,0-2.42.69,4.35,4.35,0,0,1-1.14.29,1.31,1.31,0,0,1-1.27-1,27.79,27.79,0,0,1-2-6.2,27.24,27.24,0,0,0,5.34.11c3.5-.34,8.56-1.09,13-1.95a15.17,15.17,0,0,0,3.15-.86,3,3,0,0,1,1.1-.46,2.05,2.05,0,0,1,1.32.46A21.71,21.71,0,0,1,389,187a2,2,0,0,1,.64,1.38,1.53,1.53,0,0,1-1,1.38,9.15,9.15,0,0,0-2.53,1.84c-4.19,4.08-8,8.09-12.4,12.29Zm.06,16.36c-1.67,0-2.76,1-2.76,2.18,0,1.78,1.55,3,5,3a12.82,12.82,0,0,0,2.65-.23C378,222.22,376.29,220.44,373.88,220.44Z"/><path d="M412.06,200c-5,0-6.72.12-7.06.12-.52,0-.58-.06-.58-.64V195c0-.58.06-.64.58-.64.34,0,2.07.12,7.06.12h.23v-4.37a72.83,72.83,0,0,0-.4-8.32,52.55,52.55,0,0,1,6.26.46c.57.06.86.34.86.63a7.83,7.83,0,0,1-.34,1.44,32.11,32.11,0,0,0-.23,5.74v4.42h8.89v-5.11a67.67,67.67,0,0,0-.4-7.81c2.07.06,4,.17,6,.4.52.06.81.35.81.63a9.22,9.22,0,0,1-.35,1.5,30.42,30.42,0,0,0-.23,5.28v5.11h9.19v-5.05a70.33,70.33,0,0,0-.4-7.87c2.12.06,4.07.17,6.08.4.58.06.86.35.86.63a5.49,5.49,0,0,1-.4,1.5,31.2,31.2,0,0,0-.23,5.39v5h.86c5,0,6.66-.12,7.07-.12s.57.06.57.64v4.47c0,.58-.06.64-.57.64s-2.07-.12-7.07-.12h-.86v7.58c0,6.37.12,9.53.12,9.88,0,.57-.06.63-.63.63H443c-.57,0-.63-.06-.63-.63v-2.64h-9.19v2.75c0,.58-.06.63-.63.63h-4.77c-.51,0-.57,0-.57-.63,0-.4.11-3.44.11-9.7V200h-8.89v23.6h27.15c5.63,0,7.58-.11,7.93-.11.57,0,.63,0,.63.63v4.59c0,.58-.06.63-.63.63-.35,0-2.3-.11-7.93-.11H418.44v2.52c0,.58-.06.64-.69.64h-4.94c-.58,0-.63-.06-.63-.64,0-.4.11-2.81.11-7.92V200Zm30.32,0h-9.19v9.65h9.19Z"/><path d="M491.13,192.94c-1.32,9.76-3.73,18.72-7.18,24.75-2.47,4.3-5.45,6.6-9.76,6.6-5.05,0-10.16-5.4-10.16-14.76a21.15,21.15,0,0,1,6.49-14.93c4.82-4.82,10.91-7.35,18.66-7.35,13.78,0,21.87,8.5,21.87,19.93,0,10.68-6,17.4-17.68,20.9-1.21.34-1.72.11-2.47-1a12.14,12.14,0,0,0-4-3.62c9.7-2.3,17.34-6.32,17.34-17.17,0-6.83-5.17-13.32-12.86-13.32Zm-16.48,5.57a16.52,16.52,0,0,0-4.48,10.62c0,5.28,2.13,8.21,3.91,8.21,1.49,0,2.75-.74,4.3-3.5,2.53-4.65,5.11-12.92,6.09-20.56A17.38,17.38,0,0,0,474.65,198.51Z"/><path d="M541,187.37a42.44,42.44,0,0,0-.46-7.35c2.13.06,4.42.17,6.38.4.51.06,1,.29,1,.69a2.51,2.51,0,0,1-.29,1.15,13.85,13.85,0,0,0-.46,4.65v4.31h11.14c5.52,0,7.41-.12,7.81-.12.58,0,.63.06.63.63,0,.35-.11,2.13-.11,7.12v6.66c0,9.19.11,10.86.11,11.2,0,.57,0,.63-.63.63h-4.88c-.57,0-.63-.06-.63-.63V214.3H547.17v7.06c0,6.83.12,10.34.12,10.62,0,.58-.06.64-.63.64h-5.11c-.58,0-.63-.06-.63-.64,0-.34.11-3.73.11-10.5V214.3H528.34v2.64c0,.63-.06.69-.63.69h-4.88c-.58,0-.63-.06-.63-.69,0-.34.11-2.07.11-11.25v-5.92c0-5.85-.11-7.69-.11-8,0-.57,0-.63.63-.63.4,0,2.3.12,7.81.12H541Zm-12.69,21.36H541V196.79H528.34Zm18.83-11.94v11.94h13.44V196.79Z"/><path d="M605.4,219.87c0,.63-.34.92-1.09,1a30.15,30.15,0,0,1-4.08.29c-.51,0-.74-.35-.74-.92,0-2.07,0-4.94,0-7-5.11,2.64-6.94,4.88-6.94,7.63,0,2.41,1.95,4,8,4a98.58,98.58,0,0,0,14.3-1.14c.51-.06.74.11.8.63a25.44,25.44,0,0,1,.52,4.71c0,.68-.18,1.09-.64,1.09a102.34,102.34,0,0,1-14.24.74c-9.41,0-14.41-2.81-14.41-9.47,0-5.51,3.45-9.53,12.12-14-.17-2.93-.86-4.08-3.45-4s-5.28,1.83-7.92,4.13a75.87,75.87,0,0,0-5.74,6.26c-.29.34-.46.52-.69.52a1.17,1.17,0,0,1-.63-.41,27.17,27.17,0,0,1-3.28-3.78,1,1,0,0,1-.23-.52c0-.23.12-.4.41-.63a58.88,58.88,0,0,0,12-14.24c-2.7.11-5.8.17-9.19.17-.52,0-.69-.29-.81-.92-.17-.92-.4-3-.57-4.77a126.55,126.55,0,0,0,13.21,0,43.75,43.75,0,0,0,1.72-4.94,14,14,0,0,0,.4-3.5,36.66,36.66,0,0,1,6.55,1.6,1,1,0,0,1,.69,1,1.1,1.1,0,0,1-.41.86,4.7,4.7,0,0,0-1,1.38c-.35.8-.63,1.55-1.32,3.1a93.09,93.09,0,0,0,10.45-1.78c.63-.12.8.06.92.57a20.05,20.05,0,0,1,.57,4.14c.06.57-.17.8-1,.92-4.3.63-9.24,1.26-13.43,1.72a58.1,58.1,0,0,1-4.31,6.37l.06.12a11.39,11.39,0,0,1,5.74-1.78c3.79,0,6.43,1.72,7,6.2,2.24-1,5.51-2.53,8.44-4a17.14,17.14,0,0,0,4.36-3.1,35.12,35.12,0,0,1,4,5,2.24,2.24,0,0,1,.46,1.27c0,.45-.29.68-.86.8a18.08,18.08,0,0,0-3.5.86c-3.74,1.32-7.47,2.58-12.35,4.59Z"/><path d="M635.38,232.1c-.58,0-.63-.06-.63-.63,0-.4.11-4.08.11-21.25V199c0-11.31-.11-15.05-.11-15.45,0-.57,0-.63.63-.63.4,0,2.41.12,8,.12H664.6c5.57,0,7.58-.12,8-.12.58,0,.64.06.64.63,0,.35-.12,4.08-.12,13.55v13c0,17.17.12,20.78.12,21.13,0,.57-.06.63-.64.63h-5.11c-.57,0-.63-.06-.63-.63v-3.1H641.12v3.33c0,.57-.06.63-.69.63Zm5.74-36h25.72v-7.52H641.12Zm25.72,13.09v-7.64H641.12v7.64Zm0,13.38v-7.93H641.12v7.93Z"/><path d="M698.71,214c0,4,.06,8.79.06,11.6s-.34,4.42-1.89,5.52c-1.21.91-3,1.2-6.89,1.2-1.78,0-1.78,0-2.19-1.78a15,15,0,0,0-1.55-4.31c1.55.12,3,.18,5.11.18,1.21,0,1.55-.29,1.55-1.73V212.86l-3.1,1a6.15,6.15,0,0,0-1.89.92,2,2,0,0,1-.92.34c-.34,0-.57-.17-.75-.69-.46-1.55-.92-3.61-1.32-5.62a52.91,52.91,0,0,0,5.28-1.09c.81-.18,1.73-.46,2.7-.75V196.44h-1.26c-4.08,0-5.34.12-5.68.12-.64,0-.69-.06-.69-.64v-4.36c0-.57.05-.63.69-.63.34,0,1.6.11,5.68.11h1.26v-2.69a47.26,47.26,0,0,0-.46-8.16c2.19.06,4.14.17,6,.4.58.06.92.35.92.64a3,3,0,0,1-.34,1.2c-.35.69-.35,1.9-.35,5.8V191c3.79,0,5.11-.11,5.46-.11.57,0,.63.06.63.63v4.36c0,.58-.06.64-.63.64-.35,0-1.67-.12-5.46-.12v8.61c2.19-.8,4.42-1.66,6.38-2.52a36.35,36.35,0,0,0-.23,4c0,1.84,0,1.84-1.67,2.53l-4.48,1.83ZM713,194.49a1.91,1.91,0,0,0,1.38,2.07c.69.23,2.53.46,7.23.46s7.07-.23,8.1-.92,1.2-2,1.32-5.11a15.5,15.5,0,0,0,4.13,1.66c1.44.4,1.44.46,1.27,2-.4,3.5-1.32,5.11-3.05,6.2s-6.14,1.44-12.46,1.44c-7.06,0-9.35.06-11-.92a4.79,4.79,0,0,1-2.7-4.59V185.93a38.09,38.09,0,0,0-.29-5.62c1.84.05,3.79.23,5.63.4.75.06,1,.29,1,.63a2,2,0,0,1-.28,1c-.24.46-.35.81-.35,3v1.89a73.22,73.22,0,0,0,13.21-3.56,13.55,13.55,0,0,0,3.61-1.95,31.54,31.54,0,0,1,3.33,4c.35.46.52.69.52,1,0,.51-.4.69-1.15.74a20.26,20.26,0,0,0-2.81.81,92.68,92.68,0,0,1-16.71,4Zm-4.71,37.95c-.51,0-.57-.05-.57-.57s.11-2.13.11-11.49v-6c0-6.08-.11-7.86-.11-8.26,0-.58.06-.64.57-.64s2.07.12,7,.12h10.51c4.94,0,6.6-.12,7-.12.63,0,.68.06.68.64,0,.34-.11,2.18-.11,7.35v6.83c0,9.3.11,11,.11,11.37,0,.51,0,.57-.68.57h-4.6c-.57,0-.63-.06-.63-.57v-2.47h-13.9v2.64c0,.52-.05.57-.63.57Zm5.28-17.57h13.9v-4.13h-13.9Zm13.9,9.25V219.7h-13.9v4.42Z"/><path d="M767.56,185.76a18,18,0,0,0-.69-4.19,59.52,59.52,0,0,1,6.72.8c1,.18,1.61.58,1.61,1.09a2.42,2.42,0,0,1-.52,1.33,6.13,6.13,0,0,0-.46,1.66c-.05.75-.05,1.49-.11,3.67,6.2-.22,12.11-.28,17.63-.28.68,0,.8.11.86.86,0,1.43,0,2.93,0,4.36,0,.64-.29.81-1,.75-6-.17-11.54-.17-17.51-.11,0,3.5,0,7.17.06,10.68a18,18,0,0,1,.86,5.68,21.45,21.45,0,0,1-10.22,18.55,5.55,5.55,0,0,1-2.24,1.09,3.3,3.3,0,0,1-1.73-.87,12.81,12.81,0,0,0-4.36-2.29c6.72-3,10.74-7.81,11.77-12.63-1.15,1.66-3.5,2.29-5.4,2.29-4.53,0-8-3.27-8-8.78a8.36,8.36,0,0,1,8.67-8.61,7.07,7.07,0,0,1,4.37,1.14c0-2-.06-4-.06-5.85-7.24.4-15.33,1.09-19.87,1.72-1.26.17-2.18.69-2.7.69s-.8-.23-1-.8a40.35,40.35,0,0,1-1.44-5.8,38.77,38.77,0,0,0,7-.23c3.5-.29,10.91-.75,17.8-1.15C767.62,188.75,767.62,187.31,767.56,185.76ZM760.21,209a3.56,3.56,0,0,0,3.68,3.9,3.69,3.69,0,0,0,3.9-4,3.44,3.44,0,0,0-3.79-3.68A3.66,3.66,0,0,0,760.21,209Z"/><path d="M800.58,205.51c1.9-1.49,6-5,10.28-8.9,1.89-1.72,3.33-2.41,5-2.41,2,0,3,.52,5,2.13,4.31,3.44,6.77,5.74,12.4,9.87a130.12,130.12,0,0,0,13.55,8.44c.58.23.86.69.58,1.21a24,24,0,0,1-2.82,5.4c-.28.4-.51.57-.74.57a1.4,1.4,0,0,1-.81-.29c-2.75-1.6-9-6.2-12.4-8.84-4.13-3.1-8.27-6.77-12.06-10.16a3.64,3.64,0,0,0-2.52-1.32c-.63,0-1.21.51-2,1.2-2.81,2.82-6.94,6.78-9.64,9.48a14.26,14.26,0,0,0-2.07,2.52,1.23,1.23,0,0,1-1,.69,1.51,1.51,0,0,1-1.09-.51,53.23,53.23,0,0,1-4.71-6A19.48,19.48,0,0,0,800.58,205.51Zm32-16.25c.29-.23.52-.17.86.12a26.49,26.49,0,0,1,5.46,6.14.58.58,0,0,1-.18.92l-2.41,1.78a.59.59,0,0,1-1-.17,28.73,28.73,0,0,0-5.8-6.66Zm5.11-3.73c.35-.23.52-.17.86.12a23.87,23.87,0,0,1,5.46,5.91.66.66,0,0,1-.17,1l-2.3,1.78a.59.59,0,0,1-1-.17,27.16,27.16,0,0,0-5.74-6.6Z"/><path d="M883,185.88a1.4,1.4,0,0,1,.46.91,1.16,1.16,0,0,1-.81,1.1,10.78,10.78,0,0,0-2.75,2c-4.94,4.42-11.26,10.33-15.68,14.92-.51.64-.74,1-.74,1.27s.23.63.74,1a159,159,0,0,1,21.36,18.09,1.38,1.38,0,0,1,.4.75c0,.22-.11.4-.4.68-1.32,1.44-3,3.1-4,4-.34.28-.57.46-.8.46s-.4-.18-.69-.52a144.47,144.47,0,0,0-20.9-19.41c-2.18-1.66-3-2.93-3-4.82s1-3.16,2.81-5.06c4.88-5.28,9.64-10,14.58-15.44a16.61,16.61,0,0,0,3.1-4.31A46.14,46.14,0,0,1,883,185.88Z"/><path d="M27.56,298.45c-5.51,0-7.46.12-7.81.12-.57,0-.63-.06-.63-.64v-.17a14.76,14.76,0,0,0-1.55,3c-.29.69-.46,1-.69,1s-.4-.28-.75-.92a33.42,33.42,0,0,1-2.81-7.06c.06,15,.4,27.16.4,28.08,0,.57-.05.63-.63.63H8.56c-.58,0-.64-.06-.64-.63,0-.86.29-11.89.35-25a43,43,0,0,1-4.82,11.6c-.35.58-.64.92-.87.92s-.4-.29-.57-.92a15.87,15.87,0,0,0-2-4.3,48.64,48.64,0,0,0,7.92-18H7.29c-3.79,0-4.94.12-5.28.12-.57,0-.63-.06-.63-.69v-4c0-.63.06-.69.63-.69.34,0,1.49.11,5.28.11h.86v-3.38a41.1,41.1,0,0,0-.46-7.7,51,51,0,0,1,5.57.4c.58.12.92.29.92.63a2.42,2.42,0,0,1-.34,1.21c-.29.69-.35,1.61-.35,5.4v3.44c3.33,0,4.43-.11,4.77-.11.52,0,.57.06.57.69v4c0,.63,0,.69-.57.69-.34,0-1.44-.12-4.65-.12a38.81,38.81,0,0,0,5.51,10.63v-2.64c0-.58.06-.64.63-.64.35,0,2.3.12,7.81.12h4.25v-3.5H29.17c-5.11,0-6.83.11-7.18.11-.57,0-.63-.06-.63-.63v-3.56c0-.63.06-.69.63-.69.35,0,2.07.11,7.18.11h2.64V282H28.37c-5.4,0-7.24.11-7.58.11-.58,0-.64-.05-.64-.57V277.9c0-.58.06-.64.64-.64.28,0,1.89.12,6,.12a45.53,45.53,0,0,0-2.59-4.82c-.34-.52-.23-.69.41-1l3.5-1.32c.63-.23.69-.23,1.09.29a30.26,30.26,0,0,1,2.75,4.7c.29.58.18.69-.51,1l-3.1,1.15h8.55c.81-1.55,1.73-3.39,2.36-4.88a13.5,13.5,0,0,0,.69-2.53,46.27,46.27,0,0,1,4.93,1.15c.58.17.92.4.92.8a1.12,1.12,0,0,1-.57.87,2.36,2.36,0,0,0-.81,1c-.51,1-1.2,2.35-2,3.56h.35c5.34,0,7.18-.12,7.52-.12.63,0,.69.06.69.64v3.67c0,.52-.06.57-.69.57-.34,0-2.18-.11-7.52-.11H37.26v3.44h4.08c5.17,0,6.83-.11,7.18-.11.57,0,.63.06.63.69v3.56c0,.57-.06.63-.63.63-.35,0-2-.11-7.18-.11H37.26v3.5h7c5.51,0,7.41-.12,7.75-.12.63,0,.63.06.63.64v3.78c0,.58,0,.64-.63.64-.34,0-2.24-.12-7.75-.12h-6A42.67,42.67,0,0,0,42,304.77a39.64,39.64,0,0,0,3.68-3.45,9.13,9.13,0,0,0,1.43-2,30.5,30.5,0,0,1,3.68,2.82c.4.34.63.63.63,1s-.23.58-.75.75a4.69,4.69,0,0,0-1.72,1.09c-1.09,1-2.3,2.18-3.9,3.5a38.6,38.6,0,0,0,9.13,6.78,12.45,12.45,0,0,0-2.76,3.39c-.46.8-.69,1.14-1,1.14s-.63-.28-1.26-.74a33.76,33.76,0,0,1-11.94-14.3c0,4.94.23,8.84.23,11.43S36.92,320,35.6,321c-1.09.8-2.53,1.09-6.26,1.15-1.84,0-1.84,0-2.24-1.78a14,14,0,0,0-1.49-3.68,38.44,38.44,0,0,0,4.08.23c1.72,0,2.12-.4,2.12-1.89v-4a105.27,105.27,0,0,1-10.39,5.74,5.36,5.36,0,0,0-1.78,1.15,1.32,1.32,0,0,1-.81.51c-.23,0-.4-.17-.63-.63-.63-1.38-1.26-2.87-2-4.88a19.56,19.56,0,0,0,3.33-1.15,104.11,104.11,0,0,0,12.29-6.31v-7Zm-1.84,8.9c-.57.58-.8.63-1.14.17a22,22,0,0,0-4.77-4.76c-.52-.35-.46-.52.06-1l2.18-2.18c.57-.51.75-.51,1.2-.23a22.5,22.5,0,0,1,4.89,4.37c.34.46.28.63-.18,1.09Z"/><path d="M79.24,291.5A69.84,69.84,0,0,1,65.69,306c-.52.35-.8.58-1.15.58a1.12,1.12,0,0,1-.69-.23A15.48,15.48,0,0,0,59,304.08a72.24,72.24,0,0,0,18.72-21.76,27.28,27.28,0,0,0,3.45-8.44,39.06,39.06,0,0,1,6.31,2.58,1,1,0,0,1,.52.86,1.37,1.37,0,0,1-.52,1,9,9,0,0,0-1.72,1.95c-.92,1.78-2.41,4.25-3.39,5.8l10.51-.29a6,6,0,0,0,2.93-.57,1.26,1.26,0,0,1,.74-.23,2,2,0,0,1,1.15.4,20.73,20.73,0,0,1,3.56,2.87,1.85,1.85,0,0,1,.52,1.21,1.14,1.14,0,0,1-.35.8,8.88,8.88,0,0,0-2,2.76,65.26,65.26,0,0,1-10.33,14.35A46.62,46.62,0,0,1,94.51,313c.29.34.46.57.46.8s-.17.46-.51.8a30.66,30.66,0,0,1-3.62,3.1c-.29.23-.46.35-.63.35s-.4-.17-.63-.52a60.94,60.94,0,0,0-16-14.41c1.26-1.26,2.41-2.47,3.61-3.5.29-.29.46-.41.69-.41a1.76,1.76,0,0,1,.81.35A57.07,57.07,0,0,1,84.81,304a46,46,0,0,0,8.73-12.86Z"/><path d="M137.7,280c.52-.17.75-.17.86.46a31.21,31.21,0,0,1,.52,4.65c0,.52-.23.63-.69.69-3.1.63-5.92,1-9.48,1.55-3.67,9.71-7.06,17.63-11.19,24.64-.23.4-.4.57-.64.57a1.58,1.58,0,0,1-.68-.29,27.22,27.22,0,0,1-4-2.93c-.28-.23-.4-.4-.4-.63a1.12,1.12,0,0,1,.29-.69,115.3,115.3,0,0,0,9.93-20c-2.18.12-4,.12-5.74.12-1.26,0-1.72,0-3.16-.06-.57,0-.69-.17-.8-.92a30.06,30.06,0,0,1-.58-4.88c2.36.17,3.68.23,5.35.23,2.23,0,4-.06,6.6-.29.69-2.41,1.09-4.36,1.49-6.43a21.87,21.87,0,0,0,.35-4.65,53.6,53.6,0,0,1,6.71,1.21c.58.11.92.46.92.86a1.41,1.41,0,0,1-.51,1.09,6.16,6.16,0,0,0-.92,2.12c-.41,1.38-.86,3.16-1.38,4.89A61.12,61.12,0,0,0,137.7,280Zm1.61,15.39a20.74,20.74,0,0,0-.46-4.08,30.93,30.93,0,0,1,6.26,1.1.88.88,0,0,1,.8.91,8,8,0,0,1-.34,1.21,5.89,5.89,0,0,0-.24,2.35,74.87,74.87,0,0,0,.64,9.76A44.79,44.79,0,0,1,156.3,312c.58.4.63.63.35,1.2A35.51,35.51,0,0,1,154,317.8c-.18.29-.35.4-.52.4a.86.86,0,0,1-.57-.34,42.65,42.65,0,0,0-7-4.82c0,5.74-4.13,8.38-10.68,8.38-6.32,0-10.56-3.22-10.56-8.15s4.13-8.39,10.62-8.39a29.22,29.22,0,0,1,4.53.35C139.48,301.55,139.36,298.05,139.31,295.35Zm-4.08,14.47c-2.87,0-5.11,1.15-5.11,3.33,0,1.84,1.61,2.76,4.88,2.76,3.1,0,5-1.67,5-4.08a6.36,6.36,0,0,0-.06-1.15A14.64,14.64,0,0,0,135.23,309.82Zm10.68-27.62c.34-.57.63-.63,1.21-.4a45,45,0,0,1,11.25,5.4c.34.23.52.4.52.63a1.41,1.41,0,0,1-.23.69,36.87,36.87,0,0,1-2.41,4.25c-.18.28-.35.4-.52.4a.83.83,0,0,1-.52-.23,49.75,49.75,0,0,0-11.88-6.26C144.3,285,145.16,283.24,145.91,282.2Z"/><path d="M210.11,277.26a3.28,3.28,0,0,0,1.37-.17,1.67,1.67,0,0,1,.87-.23c.4,0,1,.4,2.41,1.84.86,1,1.37,1.72,1.37,2.18a2.46,2.46,0,0,1-.63,1.38,7.47,7.47,0,0,0-.86,2.93c-1.32,8.21-3.27,14.93-6.89,21a45.54,45.54,0,0,0,10.34,9.71,17.8,17.8,0,0,0-3,4.42c-.4.8-.63,1.2-1,1.2s-.69-.28-1.32-.8a52.25,52.25,0,0,1-8.79-9.19,59.86,59.86,0,0,1-10.51,9.82c-.63.46-1,.69-1.26.69-.46,0-.69-.46-1.15-1.38a11,11,0,0,0-2.7-3.62,41.9,41.9,0,0,0,12.29-10.79c-3.9-6.95-6-14.81-6.89-23.54-1.78,0-2.58.06-2.81.06-.58,0-.63-.06-.63-.69v-4.6h-2.19v38.3c0,3.91.12,5.74.12,6.09,0,.57-.06.63-.63.63h-4.48c-.58,0-.63-.06-.63-.63,0-.4.11-2.18.11-6.09V311c-4.19,1.49-9.93,3.21-13.66,4.25a5,5,0,0,0-1.84.69,1.47,1.47,0,0,1-.92.4c-.34,0-.63-.23-.75-.75-.4-1.55-.86-3.61-1.2-5.45a31.53,31.53,0,0,0,4.94-.86V277.44c-2.3.05-3.33.11-3.56.11-.58,0-.64-.06-.64-.63v-4.08c0-.63.06-.69.64-.69.34,0,2.06.12,7.06.12H184.1c5.05,0,6.77-.12,7.11-.12.58,0,.64.06.64.69v4.37c.92.05,2.64.05,5.85.05Zm-27.51,6.32v-6.14h-8v6.14Zm0,11.2v-6.15h-8v6.15Zm0,5.05h-8v8c2.64-.69,5.46-1.55,8-2.36Zm16.83-17.17c.74,7,2.18,12.81,4.7,17.86A54.77,54.77,0,0,0,209,282.66Z"/><path d="M235.09,273.88c.74.28,1.09.63,1.09,1.14a1.33,1.33,0,0,1-.4.92,6.62,6.62,0,0,0-1,2.7c-.8,3.91-1.26,8-1.61,11a60.51,60.51,0,0,0-.17,6.31c1.27-2.23,2.47-4.42,4-7.34a12,12,0,0,0,1.78,3.73,1.31,1.31,0,0,1,.35.92,2.64,2.64,0,0,1-.58,1.43,48.11,48.11,0,0,0-3.39,7.35,6.94,6.94,0,0,0-.28,1.72.8.8,0,0,1-.75.92c-.69.18-3.16.52-4.59.69-.4.06-.69-.34-.81-.74A36.72,36.72,0,0,1,227,292.94a120.61,120.61,0,0,1,1.38-14.3,53,53,0,0,0,.46-6.54A29.83,29.83,0,0,1,235.09,273.88Zm18.66-1c1.15.29,1.26.57,1.15,1.55a19.44,19.44,0,0,0-.12,2.64c.4,5.46.8,10.68.8,14.82,0,8.15-1.32,15.21-4.36,19.92a31.62,31.62,0,0,1-9.47,9.24,2,2,0,0,1-1.15.41,1.69,1.69,0,0,1-1.21-.64,13.33,13.33,0,0,0-4.88-2.64c4.65-2.58,7.47-4.65,9.76-7.69,3.33-4.54,4.83-9.25,4.83-18.32,0-4.07-.29-10.05-.69-13.72a27.79,27.79,0,0,0-1.21-6.26A33.55,33.55,0,0,1,253.75,272.9Z"/><path d="M268.45,305.8a14.59,14.59,0,0,0,.23-3.21,40.62,40.62,0,0,1,4.42.74c.69.17,1,.4,1,.69a1.69,1.69,0,0,1-.35.81,10.15,10.15,0,0,0-.46,2.06,59.73,59.73,0,0,1-2.58,10.57c-.29.86-.52,1.2-.81,1.2a2.9,2.9,0,0,1-1.32-.69,15.77,15.77,0,0,0-2.92-1.43A46.82,46.82,0,0,0,268.45,305.8Zm16.82-17.45c.69-.29.81-.18,1.09.34a65.4,65.4,0,0,1,4.2,10.28c.23.63.05.86-.69,1.15l-2.7,1c-.63.23-.86.12-1-.4l-.69-2.58c-1.43.11-2.93.28-4.42.46v15.84c0,5.29.12,7.24.12,7.53,0,.57-.06.63-.64.63h-4.47c-.58,0-.64-.06-.64-.63,0-.35.12-2.24.12-7.53V299c-1.9.17-3.68.28-5.4.4a5.76,5.76,0,0,0-2.07.46,2.17,2.17,0,0,1-.91.28c-.35,0-.52-.4-.64-1-.28-1.38-.51-3-.8-4.82a43.1,43.1,0,0,0,4.59.11h.81q1.55-1.89,2.93-4a75.24,75.24,0,0,0-7.93-8.67c-.23-.23-.34-.35-.34-.52s.17-.4.4-.75l1.89-3c.23-.35.41-.52.58-.52s.29.12.52.35l1.72,1.72a61.11,61.11,0,0,0,3.16-6,18.14,18.14,0,0,0,1.32-3.56,35.64,35.64,0,0,1,5,2.12c.58.35.75.63.75.92s-.23.52-.52.75a3.46,3.46,0,0,0-1.09,1.37,82.94,82.94,0,0,1-5.11,8.1c.92,1,1.9,2.07,2.76,3.16,1.43-2.24,2.81-4.54,4.13-6.83a29.6,29.6,0,0,0,1.72-4,38.29,38.29,0,0,1,4.83,2.47c.51.29.69.52.69.86s-.18.64-.64.87A6.78,6.78,0,0,0,286,281.8c-2.93,4.59-6,9-8.67,12.4l6.6-.46a38.11,38.11,0,0,0-1.61-3.5c-.23-.52-.17-.69.64-1Zm.63,13.72c.69-.17.81-.12,1,.52a50.12,50.12,0,0,1,2.12,9c.06.63,0,.86-.74,1l-2.81.74c-.87.23-1,.23-1-.34a38.47,38.47,0,0,0-1.84-9.25c-.23-.63,0-.74.69-.91ZM294.29,321c-5.51,0-7.41.11-7.75.11-.64,0-.69-.05-.69-.63V316c0-.63,0-.68.69-.68.28,0,1.49.11,4.82.11v-32c0-6.55-.12-9.82-.12-10.17,0-.63.06-.68.64-.68.34,0,1.95.11,6.54.11h9.07c4.65,0,6.21-.11,6.55-.11.63,0,.69.05.69.68,0,.35-.12,3.68-.12,10.17v32c2.87,0,4-.11,4.31-.11.63,0,.69.05.69.68v4.48c0,.58-.06.63-.69.63-.34,0-2.18-.11-7.69-.11Zm2.93-42.72v8.33h11.54v-8.33Zm11.54,22.34v-8.5H297.22v8.5Zm0,14.81v-9.3H297.22v9.3Z"/><path d="M361.41,289.21a17.24,17.24,0,0,0-.06-3.91,25,25,0,0,1,6.67,2.47,1.09,1.09,0,0,1,.4,1.55,9.42,9.42,0,0,0-.92,2.24c-.46,2.41-1,4.94-1.61,7.41a66.27,66.27,0,0,1,9,5.51c.57.35.52.63.34,1.21a48.21,48.21,0,0,1-2.47,4.93c-.17.29-.34.41-.51.41a1.11,1.11,0,0,1-.69-.41,47.24,47.24,0,0,0-7.52-5.39c-2.93,6.6-6,10.79-11.6,15.1-.52.4-.81.63-1.15.63a1.61,1.61,0,0,1-.86-.4,11.81,11.81,0,0,0-5-2.36c7.18-5,10.68-9.76,12.86-15.56a38.88,38.88,0,0,0-11.37-3.5c-3,6.32-4.7,9.19-7,11.48a9.42,9.42,0,0,1-7.35,3.16c-3.33,0-6.83-2.29-6.83-7.86,0-7.12,7.35-12.69,16.94-12.69,1.89-4.77,3.33-8.79,4.76-13.61-3.16.34-6,.69-7.92.92a11.44,11.44,0,0,0-2.59.63,3,3,0,0,1-1,.23.93.93,0,0,1-.92-.63,34.36,34.36,0,0,1-1.66-6.26,21.47,21.47,0,0,0,5.05.34,63.83,63.83,0,0,0,8.9-.74,6.54,6.54,0,0,0,2.81-1,1.29,1.29,0,0,1,.75-.23,1.32,1.32,0,0,1,.8.23,19,19,0,0,1,3.91,3.16,1.37,1.37,0,0,1,.51,1,1.43,1.43,0,0,1-.57,1,7.76,7.76,0,0,0-1.55,3c-1.49,3.9-3.1,8.38-4.82,12.51a47.83,47.83,0,0,1,11.14,2.87A57.52,57.52,0,0,0,361.41,289.21Zm-30.32,16c0,1.83.64,2.64,2,2.64,1.1,0,2.19-.75,3.33-2.18a39.44,39.44,0,0,0,4.2-7C334.77,298.91,331.09,302,331.09,305.23Z"/><path d="M410.05,309.76c0,.63-.34.92-1.09,1a32.29,32.29,0,0,1-4.08.28c-.51,0-.74-.34-.74-.91,0-2.07,0-4.94.05-7-5.11,2.64-6.94,4.88-6.94,7.64,0,2.41,1.95,4,8,4a98.51,98.51,0,0,0,14.3-1.15c.51-.06.74.11.8.63a25.44,25.44,0,0,1,.52,4.71c0,.69-.18,1.09-.64,1.09a102.29,102.29,0,0,1-14.24.75c-9.41,0-14.41-2.82-14.41-9.48,0-5.51,3.45-9.53,12.12-14-.17-2.92-.86-4.07-3.45-4s-5.28,1.84-7.92,4.14a75.85,75.85,0,0,0-5.74,6.25c-.29.35-.46.52-.69.52a1.14,1.14,0,0,1-.63-.4,27.88,27.88,0,0,1-3.28-3.79,1,1,0,0,1-.23-.52c0-.23.12-.4.41-.63a58.69,58.69,0,0,0,12-14.24c-2.7.12-5.8.17-9.19.17-.52,0-.69-.28-.8-.92-.18-.91-.41-3-.58-4.76a126.54,126.54,0,0,0,13.21-.06,43.75,43.75,0,0,0,1.72-4.94,13.92,13.92,0,0,0,.4-3.5,35.72,35.72,0,0,1,6.55,1.61,1,1,0,0,1,.69,1,1.14,1.14,0,0,1-.4.87,4.35,4.35,0,0,0-1,1.37c-.35.81-.63,1.55-1.32,3.1a90.87,90.87,0,0,0,10.45-1.78c.63-.11.8.06.92.58a20,20,0,0,1,.57,4.13c.06.58-.17.81-1,.92-4.31.63-9.25,1.26-13.44,1.72a58.2,58.2,0,0,1-4.31,6.38l.06.11a11.48,11.48,0,0,1,5.74-1.78c3.79,0,6.43,1.72,7,6.2,2.24-1,5.51-2.52,8.44-4a16.89,16.89,0,0,0,4.36-3.1,34.53,34.53,0,0,1,4,5.06,2.22,2.22,0,0,1,.46,1.26c0,.46-.29.69-.86.8a18.84,18.84,0,0,0-3.5.86c-3.74,1.33-7.47,2.59-12.35,4.6Z"/><path d="M441.12,306.38c0-2,.11-4.88.17-7.18-1.44,1.38-2.87,2.7-4.42,4-.58.46-.92.75-1.21.75s-.51-.35-.8-1.21a12.54,12.54,0,0,0-2.07-4.08,53.48,53.48,0,0,0,11.94-12.51,28.76,28.76,0,0,0,1.56-3,35.89,35.89,0,0,1,4.3,2.81c.52.46.69.69.69,1a.86.86,0,0,1-.4.63,3.86,3.86,0,0,0-1.21,1.32c-.86,1.26-1.72,2.53-2.64,3.73v22.17c0,4.59.12,6.77.12,7.06,0,.57-.06.63-.64.63h-4.88c-.57,0-.63-.06-.63-.63,0-.35.12-2.47.12-7.06Zm9.7-33.71c.52.4.8.63.8,1s-.34.64-.86.92a8.59,8.59,0,0,0-1.55,1.61,56.61,56.61,0,0,1-11.08,9.82,2.48,2.48,0,0,1-1.26.57c-.4,0-.63-.4-1.09-1.32a13.46,13.46,0,0,0-2.59-3.56,45.74,45.74,0,0,0,11.26-9.24,16.81,16.81,0,0,0,1.66-2.64A26.66,26.66,0,0,1,450.82,272.67Zm10,20.38c-5.45,0-7.35.12-7.75.12-.57,0-.63-.06-.63-.63V288c0-.57.06-.63.63-.63.4,0,2.3.11,7.75.11h16.42c5.46,0,7.35-.11,7.64-.11.57,0,.63.06.63.63v4.54c0,.57-.06.63-.63.63-.29,0-2.18-.12-7.64-.12H476v10.86c0,5.11.17,8.32.17,10.85.06,2.81-.4,4.48-1.95,5.74-1.27,1.09-3.45,1.32-9.07,1.38-1.84,0-1.84.06-2.24-1.78a14.47,14.47,0,0,0-1.73-4.42c2.36.17,4.08.23,6.21.23,1.95,0,2.52-.41,2.52-1.84v-21Zm2.3-14.18c-5.05,0-6.78.12-7.06.12-.58,0-.64-.06-.64-.64v-4.59c0-.57.06-.63.64-.63.28,0,2,.11,7.06.11h11.94c5.11,0,6.78-.11,7.12-.11.63,0,.69.06.69.63v4.59c0,.58-.06.64-.69.64-.34,0-2-.12-7.12-.12Z"/><path d="M499.17,293.46c7.06-2.36,12.63-3.51,16.77-3.51,7.81,0,13.09,5.11,13.09,12.29,0,5.86-2.76,9.93-8.21,12.86a31,31,0,0,1-11.89,3.79c-1,.17-1.49-.06-1.89-.8a12.17,12.17,0,0,0-3.51-3.79c6.72-1,9.88-2,13.84-4a9,9,0,0,0,5.17-8.56c0-4.07-2.53-6.31-7.12-6.31-4,0-10,1.95-16.25,4.47a19.2,19.2,0,0,0-3.22,1.78,1.74,1.74,0,0,1-1.14.58c-.52,0-.92-.35-1.5-1a29.36,29.36,0,0,1-3.1-5.56A62.33,62.33,0,0,0,499.17,293.46Z"/><path d="M562.74,283.29c-7,1.32-13.15,2.53-19.3,3.79-2.18.52-2.75.63-3.61.92a3.47,3.47,0,0,1-1.27.46,1.34,1.34,0,0,1-1.09-.86,40.08,40.08,0,0,1-2.12-6.2,80.93,80.93,0,0,0,9.13-1c7.06-1,19.69-2.93,34.51-4.88.86-.11,1.14.23,1.2.63a31.64,31.64,0,0,1,.63,5.06c0,.69-.34.86-1.09.86a25.64,25.64,0,0,0-7,1.26c-9.76,3.33-14.65,10-14.65,16.94,0,7.41,5.29,11.42,15.28,12.06.92,0,1.26.23,1.26.86a20.58,20.58,0,0,1-.63,4.94c-.17.86-.4,1.2-1.09,1.2-10.11,0-21.19-5.8-21.19-17.74,0-8.15,4.08-13.67,11-18.2Z"/><path d="M603.05,290.18c-2.87.23-5.8.46-9.65.46-1,0-1.26-.34-1.38-1.2-.17-1.09-.4-3-.63-5a29.31,29.31,0,0,0,4.48.29c2.41,0,4.88-.23,7.29-.46,0-1.9.06-4.08.06-6.55a21.55,21.55,0,0,0-.4-4.65,32.26,32.26,0,0,1,6.83,1c.69.17,1.15.57,1.15,1.09a2.18,2.18,0,0,1-.34.92,6.93,6.93,0,0,0-.81,2.23c-.17,1.5-.23,2.93-.29,4.77a56.88,56.88,0,0,0,7.35-2.12c.52-.18.92-.06,1,.51A28.91,28.91,0,0,1,618,286c0,.58-.17.75-.74.92a58.25,58.25,0,0,1-8.21,2.18c-.06,2.76-.06,5.57-.12,8.33a36.15,36.15,0,0,1,14.13-3.16c7.12.06,12.23,4.59,12.23,11.48,0,7.35-4.71,11.66-12.46,11.66a22,22,0,0,1-4.71-.52,1.53,1.53,0,0,1-1.26-1.72,10.09,10.09,0,0,0-1.73-4.88,21.41,21.41,0,0,0,7.18,1c3.22,0,6.2-1.83,6.2-5.91,0-3.73-2.29-5.8-6.31-5.8-3.28,0-7.24.86-13.15,3.9,0,2.42.11,4.37.23,6.89s.46,6.15.46,7.47c0,.8.11,1.66-.87,1.89a22.25,22.25,0,0,1-4.24.69c-.64.06-.87-.4-1.38-1.15a35.19,35.19,0,0,0-8.16-7.34,9.89,9.89,0,0,0-1.83,1.26,1.43,1.43,0,0,1-1,.4,1.59,1.59,0,0,1-1.26-.92c-.63-1-1.78-3.44-2.64-5.34a20.88,20.88,0,0,0,5.28-2c2.47-1.38,5.17-2.93,9.36-5.34Zm-5.34,19.76c1.61.86,3.56,1.83,5.4,2.58.45.11.63.06.57-.46-.12-1.49-.23-4.13-.35-6C601.73,307.12,599.77,308.44,597.71,309.94Zm27.44-30.15c.41-.63.58-.8,1-.69a27.21,27.21,0,0,1,12.17,7c.23.23.35.4.35.57a1.51,1.51,0,0,1-.23.57c-.75,1.15-2.24,2.93-3.1,4.08-.18.23-1,.29-1.15,0-3-3.39-7.06-5.51-11.66-7.06A36.78,36.78,0,0,1,625.15,279.79Z"/><path d="M657.77,273.88c.75.28,1.09.63,1.09,1.14a1.29,1.29,0,0,1-.4.92,6.65,6.65,0,0,0-1,2.7c-.81,3.91-1.27,8-1.61,11a55.47,55.47,0,0,0-.17,6.31c1.26-2.23,2.47-4.42,4-7.34a11.79,11.79,0,0,0,1.78,3.73,1.34,1.34,0,0,1,.34.92,2.69,2.69,0,0,1-.57,1.43,46.27,46.27,0,0,0-3.39,7.35,7.41,7.41,0,0,0-.29,1.72.8.8,0,0,1-.75.92c-.68.18-3.15.52-4.59.69-.4.06-.69-.34-.8-.74a36.68,36.68,0,0,1-1.73-11.66,122.77,122.77,0,0,1,1.38-14.3,53,53,0,0,0,.46-6.54A29.48,29.48,0,0,1,657.77,273.88Zm18.66-1c1.15.29,1.27.57,1.15,1.55a21.2,21.2,0,0,0-.11,2.64c.4,5.46.8,10.68.8,14.82,0,8.15-1.32,15.21-4.36,19.92a31.54,31.54,0,0,1-9.48,9.24,2,2,0,0,1-1.15.41,1.67,1.67,0,0,1-1.2-.64,13.5,13.5,0,0,0-4.88-2.64c4.65-2.58,7.46-4.65,9.76-7.69,3.33-4.54,4.82-9.25,4.82-18.32,0-4.07-.29-10.05-.69-13.72a27.29,27.29,0,0,0-1.2-6.26A33.44,33.44,0,0,1,676.43,272.9Z"/><path d="M708.13,298.57a103.81,103.81,0,0,1-11.83-.23c-.63,0-.86-.23-.92-1a34.19,34.19,0,0,1-.34-4.88,80.67,80.67,0,0,0,12.92.46c-.06-2.18-.06-4.42-.12-6.6a94.66,94.66,0,0,1-13.72-.29c-.63,0-.92-.23-1-.8-.17-1.44-.28-2.82-.4-5.17a132.32,132.32,0,0,0,15,.57c0-2.12-.06-3.62-.12-5.57a16.17,16.17,0,0,0-.69-3.84,33.12,33.12,0,0,1,7.24,1,1.17,1.17,0,0,1,.63,1.72,7.26,7.26,0,0,0-.86,2.76c-.06,1.15-.06,1.95-.12,3.67a96.33,96.33,0,0,0,12.58-1.72c.69-.17.92,0,1,.69a30.73,30.73,0,0,1,.29,4.19c0,.75-.17.86-.63.92A116.27,116.27,0,0,1,713.81,286c0,2.3.06,4.42.06,6.49,4.37-.29,7.12-.86,11.26-1.49.68-.18.86-.06.91.46.06,1.09.18,3,.18,4.7,0,.58-.23.75-.86.81a106,106,0,0,1-11.26,1.38c.12,2.64.23,5.45.4,8.09a51.19,51.19,0,0,1,15.22,6.95c.57.52.57.69.4,1.38a17.33,17.33,0,0,1-2.53,4.25.83.83,0,0,1-.74.46.89.89,0,0,1-.63-.29,45.68,45.68,0,0,0-11.43-6.55c-.06,6.2-3.79,8.73-11.66,8.73-7.46,0-11.71-3.27-11.71-8s4.54-8.15,11.48-8.15c1.44,0,2.82,0,5.52.23C708.3,302.87,708.19,300.52,708.13,298.57Zm-4.94,11.6c-4.19,0-6.2,1.2-6.2,3,0,1.49,1.72,2.58,5.68,2.58,2.3,0,4.43-.69,5.23-1.72a5.52,5.52,0,0,0,.63-3.22A24.81,24.81,0,0,0,703.19,310.17Z"/><path d="M762.56,275.66a18.56,18.56,0,0,0-.68-4.2,58.9,58.9,0,0,1,6.71.81c1,.17,1.61.57,1.61,1.09a2.37,2.37,0,0,1-.52,1.32,5.94,5.94,0,0,0-.45,1.66c-.06.75-.06,1.5-.12,3.68,6.2-.23,12.12-.29,17.63-.29.69,0,.8.12.86.86.06,1.44.06,2.93,0,4.37,0,.63-.29.8-1,.74-6-.17-11.54-.17-17.51-.11,0,3.5,0,7.18.06,10.68A18,18,0,0,1,770,302a21.45,21.45,0,0,1-10.22,18.55,5.49,5.49,0,0,1-2.24,1.09,3.21,3.21,0,0,1-1.72-.86,12.79,12.79,0,0,0-4.37-2.3c6.72-3,10.74-7.81,11.77-12.63-1.14,1.67-3.5,2.3-5.39,2.3-4.54,0-8-3.27-8-8.79a8.36,8.36,0,0,1,8.67-8.61,7,7,0,0,1,4.36,1.15c0-2-.06-4-.06-5.86-7.23.4-15.33,1.09-19.86,1.72-1.27.18-2.19.69-2.7.69s-.81-.23-1-.8a39.26,39.26,0,0,1-1.43-5.8,37.77,37.77,0,0,0,7-.23c3.5-.29,10.91-.75,17.8-1.15C762.62,278.64,762.62,277.21,762.56,275.66Zm-7.35,23.25a3.57,3.57,0,0,0,3.68,3.91,3.69,3.69,0,0,0,3.9-4,3.44,3.44,0,0,0-3.79-3.67A3.65,3.65,0,0,0,755.21,298.91Z"/><path d="M803.05,315.45a8.33,8.33,0,1,1-8.33-8.27A8.29,8.29,0,0,1,803.05,315.45Zm-13.09,0a4.77,4.77,0,1,0,4.76-4.77A4.67,4.67,0,0,0,790,315.45Z"/></g></g></svg>