<svg xmlns="http://www.w3.org/2000/svg" viewBox="0 0 54.97 331"><defs><style>.cls-1{fill:none;stroke:#000;stroke-miterlimit:10;stroke-width:4px;}</style></defs><title>アセット 28</title><g id="レイヤー_2" data-name="レイヤー 2"><g id="レイヤー_1-2" data-name="レイヤー 1"><path d="M40.05,106.27,34,105.33a9.84,9.84,0,0,1-.76-3.48,7.07,7.07,0,0,1,2.58-5.7c1.94-1.61,4.67-2.24,8.21-1.89a13.16,13.16,0,0,1,8,3.35,9.39,9.39,0,0,1,3,7.09,8,8,0,0,1-.51,2.77l-6-.6a3.36,3.36,0,0,0,1.26-2.49,3.46,3.46,0,0,0-1.48-2.88,8,8,0,0,0-4.14-1.4,9.59,9.59,0,0,0-2.28,0,4.93,4.93,0,0,0-1.7.54,2.67,2.67,0,0,0-1.06,1,2.87,2.87,0,0,0-.37,1.49A4.94,4.94,0,0,0,40.05,106.27Z"/><path d="M33.59,124.2v-5.89l2.66-.16v-3.84l-2.66-.73v-5.89l21,7.18v7Zm7.17-6.26,2.45-.13h.36l2.37,0h1.64l2,0-.64-.14-.77-.18L47,117.18l-.4-.09-2.54-.65-3.29-.91Z"/><path d="M34.1,126.3l6.6.66c-1.52,1-2.28,2.1-2.28,3.41a2,2,0,0,0,.38,1.24,1.37,1.37,0,0,0,1,.56,1.92,1.92,0,0,0,1.64-.84l.72-.86A12.17,12.17,0,0,1,43.52,129a6,6,0,0,1,1.42-.92,5.08,5.08,0,0,1,1.5-.45,6.38,6.38,0,0,1,1.64,0,8.57,8.57,0,0,1,3.07,1,9.68,9.68,0,0,1,1.37.93,7.4,7.4,0,0,1,1.09,1.15,6.38,6.38,0,0,1,1.36,4,8.27,8.27,0,0,1-1.07,4l-6.42-.65a5.17,5.17,0,0,0,1.69-1.41,2.8,2.8,0,0,0,.62-1.69,1.73,1.73,0,0,0-.38-1.12,1.27,1.27,0,0,0-.89-.52,2,2,0,0,0-1.67,1l-.67.84a7.6,7.6,0,0,1-2.65,2.31,5.86,5.86,0,0,1-3.18.48,8,8,0,0,1-5.12-2.42,7,7,0,0,1-2-5A11.32,11.32,0,0,1,34.1,126.3Z"/><path d="M33.59,140.33l21,2.12V153l-4.94-.49v-4.9l-3.06-.31v4.39l-4.75-.48v-4.38l-3.21-.33v4.9l-5-.51Z"/><path d="M34.1,159.85l6.6.66c-1.52,1-2.28,2.1-2.28,3.41a2,2,0,0,0,.38,1.24,1.4,1.4,0,0,0,1,.56,1.92,1.92,0,0,0,1.64-.84l.72-.86a11.45,11.45,0,0,1,1.38-1.45,6,6,0,0,1,1.42-.92,5.08,5.08,0,0,1,1.5-.45,6.38,6.38,0,0,1,1.64,0,8.57,8.57,0,0,1,3.07,1,9.68,9.68,0,0,1,1.37.93,7,7,0,0,1,1.09,1.15,6.37,6.37,0,0,1,1.36,4,8.3,8.3,0,0,1-1.07,4l-6.42-.65a5.17,5.17,0,0,0,1.69-1.41,2.82,2.82,0,0,0,.62-1.69,1.73,1.73,0,0,0-.38-1.12,1.28,1.28,0,0,0-.89-.53,2,2,0,0,0-1.67,1l-.67.83A7.54,7.54,0,0,1,43.53,171a5.77,5.77,0,0,1-3.18.47,7.92,7.92,0,0,1-5.12-2.41,7,7,0,0,1-2-5A11.28,11.28,0,0,1,34.1,159.85Z"/><path d="M33.59,181.52v-5.7l16,1.61v-3.15l5,.51V186.9l-5-.5v-3.27Z"/><path d="M54.59,197.83v5.71L39.74,202a7,7,0,0,1-3-.89A6.79,6.79,0,0,1,34.53,199a7.9,7.9,0,0,1-1.31-4.52,7.53,7.53,0,0,1,1.44-4.77q1.85-2.32,5.88-1.92l14.05,1.41v5.7L41,193.56a3.88,3.88,0,0,0-1.94.14,1.07,1.07,0,0,0-.57,1.07,1.33,1.33,0,0,0,.53,1.19,4.63,4.63,0,0,0,2,.51Z"/><path d="M33.59,205.22l21,2.11v4.92c0,2.82-.75,4.93-2.26,6.35-2,1.86-4.72,2.61-8.25,2.26A12.64,12.64,0,0,1,36,217.44a9.41,9.41,0,0,1-2.42-6.89Zm5.07,6.21q.15,3.07,5.25,3.59a8.1,8.1,0,0,0,4-.38,2.08,2.08,0,0,0,1.47-2v-.18Z"/><path d="M33.59,231.42v-5.7l8.89.89,12.11-4v5.95l-3.11.71c-.61.14-1.2.26-1.76.37s-1.1.19-1.62.26l2,.75c.56.21,1,.39,1.36.55l3.14,1.35v5.91l-12.11-6.13Z"/><line class="cls-1" x1="2" x2="2" y2="331"/></g></g></svg>