<svg xmlns="http://www.w3.org/2000/svg" viewBox="0 0 946.36 588.22"><defs><style>.cls-1{fill:#fff;}.cls-2{fill:none;stroke:#fff;stroke-linejoin:round;stroke-width:4.14px;}</style></defs><title>アセット 22</title><g id="レイヤー_2" data-name="レイヤー 2"><g id="レイヤー_1-2" data-name="レイヤー 1"><path class="cls-1" d="M328.36,569.45a38.88,38.88,0,0,0-7.06.57c-.57,0-1-.28-1.1-1a51.79,51.79,0,0,1-.72-5.81,61.78,61.78,0,0,0,10.37.57h15.46c3.64,0,7.34-.09,11-.14.72,0,.86.1.86.67a33.94,33.94,0,0,1,0,4.51c0,.58-.19.77-.86.72-3.6,0-7.16-.09-10.71-.09Z"/><path class="cls-1" d="M382.89,574.39c-4.18,0-5.62.1-5.91.1s-.48,0-.48-.53v-2.88c0-.48.05-.53.48-.53s1.73.1,5.91.1h12.86v-2.26h-7.92c-4.65,0-6.24.1-6.53.1-.47,0-.52,0-.52-.48v-2.64c0-.48.05-.53.52-.53.29,0,1.88.1,6.53.1h7.92v-2.12h-6.19c-4.7,0-6.38.1-6.67.1-.53,0-.58,0-.58-.58,0-.28.1-.91.1-2.49v-2.6c0-1.58-.1-2.2-.1-2.49,0-.53.05-.58.58-.58.29,0,2,.1,6.67.1h6.19v-2.11H383.66c-4.32,0-5.81.09-6.1.09-.48,0-.53,0-.53-.53v-3c0-.48.05-.53.53-.53.29,0,1.78.1,6.1.1h12.09a23.09,23.09,0,0,0-.33-4.42c1.77,0,3.31.1,5,.29.43.05.77.24.77.53a1.92,1.92,0,0,1-.29.91,7.47,7.47,0,0,0-.29,2.69h12.2c4.32,0,5.8-.1,6.09-.1.48,0,.53.05.53.53v3c0,.48-.05.53-.53.53-.29,0-1.77-.09-6.09-.09H400.6v2.11H407c4.7,0,6.38-.1,6.72-.1s.53.05.53.58c0,.29-.1.91-.1,2.49v2.6c0,1.58.1,2.21.1,2.49,0,.53-.05.58-.53.58s-2-.1-6.72-.1H400.6v2.12h7.78c4.7,0,6.38-.1,6.62-.1.48,0,.53,0,.53.53,0,.29-.1,1.44-.1,4.17v1.11c2.84,0,3.94-.1,4.18-.1.43,0,.48.05.48.53V574c0,.48,0,.53-.48.53-.24,0-1.34,0-4.18-.1v2.45c0,2.88.1,4.13.1,4.42,0,.48,0,.53-.53.53h-3.69c-.48,0-.53,0-.53-.53V580.2H400.65c.05.87.05,1.68.05,2.4,0,2.21-.43,3.51-1.73,4.27s-3.31,1-6.77,1.06c-1.44,0-1.44,0-1.92-1.39a15.22,15.22,0,0,0-1.87-3.65,32.74,32.74,0,0,0,4.85.19c2.06-.05,2.49-.38,2.49-1.78v-1.1h-7.87c-4.7,0-6.29.1-6.58.1-.47,0-.52,0-.52-.58v-2.59c0-.53.05-.58.52-.58.29,0,1.88.1,6.58.1h7.87v-2.26Zm12.86-14.64v-2.4h-8.68v2.4Zm13.73-2.4H400.6v2.4h8.88Zm-8.88,11v2.26h10.18v-2.26Zm10.18,8.26v-2.26H400.6v2.26Z"/><path class="cls-1" d="M431.51,576.26c-4.32,0-5.76.1-6.05.1-.52,0-.57-.05-.57-.53V573c0-.53.05-.58.57-.58.29,0,1.73.1,6.05.1h11.86v-2.59H436.6c-4.66,0-6.34.09-6.62.09-.48,0-.48,0-.48-.52v-2.74c0-.53,0-.58.48-.58.28,0,2,.1,6.62.1h6.77v-2.54h-9c-4.6,0-6.14.09-6.43.09-.53,0-.57-.05-.57-.48v-2.83c0-.48,0-.53.57-.53.29,0,1.83.1,6.43.1h2.93c-.52-1.16-1-2.12-1.53-3-.24-.43-.29-.62.33-.81l3.12-.87h-7.68c-4.32,0-5.76.1-6.05.1-.52,0-.57-.05-.57-.53v-3c0-.52.05-.57.57-.57.29,0,1.73.09,6.05.09h.34a22.69,22.69,0,0,0-2.74-4.12c-.28-.34-.19-.53.39-.82l2.78-1.3c.48-.24.63-.19.91.2a28.5,28.5,0,0,1,3.22,4.65c.24.43.24.48-.39.82l-1.15.57h4.47v-3.16a18.7,18.7,0,0,0-.29-4.18c1.49.05,3.36.14,4.66.29.38,0,.57.19.57.43a2.44,2.44,0,0,1-.19.82,7.53,7.53,0,0,0-.29,2.64v3.16h3.89v-3.12a18.89,18.89,0,0,0-.29-4.22,44.56,44.56,0,0,1,4.61.34c.43,0,.62.19.62.43a2.18,2.18,0,0,1-.19.77,7.64,7.64,0,0,0-.28,2.64v3.16h3a34.11,34.11,0,0,0,2.21-3.93,9.64,9.64,0,0,0,.82-2.59,40.15,40.15,0,0,1,4.65,1.24c.43.15.62.39.62.63a1,1,0,0,1-.47.81,4.71,4.71,0,0,0-.82.92c-.63,1-1.3,2-2,2.92h.67c4.32,0,5.76-.09,6.05-.09.48,0,.53.05.53.57v3c0,.48-.05.53-.53.53-.29,0-1.73-.1-6.05-.1h-8.4c1.25.24,2.35.48,3.8.87.38.09.62.29.62.57a.82.82,0,0,1-.53.72,3.34,3.34,0,0,0-.67,1l-.87,1.54h3.13c4.6,0,6.14-.1,6.43-.1.48,0,.53,0,.53.53v2.83c0,.43-.05.48-.53.48-.29,0-1.83-.09-6.43-.09h-9.7v2.54h7.63c4.71,0,6.34-.1,6.63-.1.48,0,.52.05.52.58v2.74c0,.48,0,.52-.52.52-.29,0-1.92-.09-6.63-.09h-7.63v2.59h12.62c4.32,0,5.76-.1,6.05-.1.48,0,.53.05.53.58v2.83c0,.48-.05.53-.53.53-.29,0-1.73-.1-6.05-.1H452.3c4,2.84,9.07,4.71,16,6.24a13.94,13.94,0,0,0-1.87,3.08c-.38.91-.58,1.25-1.05,1.25a5,5,0,0,1-1.11-.25A42,42,0,0,1,448.12,578c0,5.72.24,8.69.24,9.51,0,.48-.05.53-.53.53h-4.08c-.43,0-.48,0-.48-.53,0-.82.15-3.6.2-9.32-4,3.85-9,6.53-15.41,8.6a3.81,3.81,0,0,1-1.11.29c-.43,0-.62-.34-1.05-1.25a11.62,11.62,0,0,0-1.92-2.88c6.38-1.59,11.28-3.56,15.31-6.68ZM450,560.09c.43-.82.82-1.63,1.3-2.79a9.33,9.33,0,0,0,.53-1.92H439.63c.14,0,.24.2.38.39a29.91,29.91,0,0,1,2.16,4.32Z"/><path class="cls-1" d="M473.85,573.86a13.13,13.13,0,0,0,0-2.68,35.41,35.41,0,0,1,3.69.67c.58.14.82.33.82.57a1.33,1.33,0,0,1-.24.68,5.63,5.63,0,0,0-.29,1.58,61.45,61.45,0,0,1-1.68,8.93c-.24.77-.43,1.06-.72,1.06a2.05,2.05,0,0,1-.86-.39,16.35,16.35,0,0,0-2.69-1.25A39,39,0,0,0,473.85,573.86Zm13.87-14.2c.62-.24.77-.15,1,.33a47.31,47.31,0,0,1,3.22,8.64c.14.53,0,.67-.63.87l-2.45.72c-.57.19-.72.14-.81-.39l-.53-2.11-3,.29v13.15c0,4.42.1,6.05.1,6.29,0,.48-.05.53-.53.53h-3.65c-.48,0-.52-.05-.52-.53,0-.29.09-1.87.09-6.29V568.44l-4.22.29a4.26,4.26,0,0,0-1.73.38,1.75,1.75,0,0,1-.77.24c-.33,0-.48-.33-.57-.81-.24-1.16-.48-2.5-.68-4a36.55,36.55,0,0,0,4,.1c.91-1.15,1.82-2.4,2.74-3.65a71.64,71.64,0,0,0-6.39-7c-.43-.34-.29-.48.05-1l1.63-2.49c.19-.29.34-.44.48-.44s.24.1.43.29l1.3,1.35a40.85,40.85,0,0,0,2.64-5,14.75,14.75,0,0,0,1.1-3,39,39,0,0,1,4.08,1.72c.43.24.63.48.63.77s-.2.43-.44.63a2.89,2.89,0,0,0-.91,1.15c-1.53,2.64-2.73,4.56-4.22,6.67.72.82,1.44,1.63,2.11,2.45,1.15-1.78,2.21-3.55,3.26-5.38a23.17,23.17,0,0,0,1.44-3.26,44.3,44.3,0,0,1,4,2.06c.43.24.57.43.57.72s-.14.53-.52.72a5.76,5.76,0,0,0-1.59,2c-2.45,3.84-5,7.54-7.29,10.42,1.72-.1,3.5-.24,5.23-.39-.34-.91-.72-1.82-1.15-2.73-.2-.48-.2-.63.48-.87ZM489,571.32c.58-.14.62-.1.82.43a52.65,52.65,0,0,1,2,8.69c.05.53,0,.67-.62.86l-2.3.77c-.73.24-.82.19-.87-.28a69.46,69.46,0,0,0-1.82-9.13c-.15-.52,0-.62.53-.76Zm14.11-20.88c-.48,6.62-3.12,11.23-8.4,14.64-.57.38-.86.62-1.1.62s-.53-.33-1-1.05a8.14,8.14,0,0,0-2.5-2.5c5.14-2.49,7.83-5.81,8.31-11.71H498c-4.28,0-5.72.09-6.05.09s-.53,0-.53-.57v-3.31c0-.53.05-.58.53-.58s1.77.1,6.05.1h10.17c4.32,0,5.76-.1,6-.1.48,0,.53.1.53.62,0,1.2,0,2.36-.05,3.32-.14,5.47-.57,9.89-1.44,11.81-1,2.16-3,3.07-5.62,3.07-1.1,0-1.82,0-2.73,0-1.35-.05-1.35-.1-1.59-1.58a11.51,11.51,0,0,0-1-3.22,33.48,33.48,0,0,0,4.41.38,2.37,2.37,0,0,0,2.26-1c.53-.87,1-4.71,1-8.93Zm-9.26,37.44c-.48,0-.53,0-.53-.57,0-.24.1-1.59.1-8.79V574.2c0-4.37-.1-5.81-.1-6.05,0-.53,0-.57.53-.57.33,0,1.68.09,5.66.09h8c3.93,0,5.33-.09,5.62-.09.52,0,.57,0,.57.57,0,.24-.1,1.68-.1,5.28v5c0,7.1.1,8.45.1,8.73,0,.44-.05.48-.57.48h-3.7c-.48,0-.53,0-.53-.48v-1.82H498v2c0,.52-.05.57-.58.57Zm4.18-7h10.89v-8.78H498Z"/><path class="cls-1" d="M544.65,546.21c5.14,7,10.75,11.38,20.26,15.12a14.22,14.22,0,0,0-2.07,3.8c-.33.86-.48,1.25-.86,1.25a3.77,3.77,0,0,1-1.1-.44c-8.55-4-14.31-8.93-18.82-15.69-4.42,6.91-10.18,11.66-18,15.79a3,3,0,0,1-1.15.53c-.28,0-.48-.39-.86-1.2a11.34,11.34,0,0,0-2.21-3.41c8.4-3.65,14-8.35,18.1-15a13.24,13.24,0,0,0,1.68-3.5,31.77,31.77,0,0,1,5,1c.43.09.82.38.82.72s-.15.43-.48.72Zm-14,31.54c1.39-2.35,1.83-5.28,1.83-10.41a34.43,34.43,0,0,0-.34-5.62c1.68,0,3.75.1,5.33.24.53,0,.81.24.81.58a3.07,3.07,0,0,1-.23,1.05,14,14,0,0,0-.29,3.89c0,6.72-.82,10.37-2.69,13.44a18.7,18.7,0,0,1-8.55,6.82,3.48,3.48,0,0,1-1.15.48c-.29,0-.52-.29-1-1.06a13.49,13.49,0,0,0-2.83-3.26C526,582.46,529.15,580.3,530.63,577.75ZM546.57,569a49.49,49.49,0,0,0-.34-7.35c1.88,0,3.7.2,5.28.39.49,0,.73.24.73.53a5.8,5.8,0,0,1-.24,1.2,32.41,32.41,0,0,0-.25,5.18v12.15c0,3.93.1,5.9.1,6.19s-.05.48-.58.48H547c-.48,0-.53,0-.53-.48s.1-2.26.1-6.19Z"/><path class="cls-1" d="M591.88,569.45a38.69,38.69,0,0,0-7,.57,1,1,0,0,1-1.11-1,51.79,51.79,0,0,1-.72-5.81,61.78,61.78,0,0,0,10.37.57h15.46c3.65,0,7.34-.09,11-.14.72,0,.86.1.86.67a33.94,33.94,0,0,1,0,4.51c0,.58-.19.77-.86.72-3.6,0-7.15-.09-10.71-.09Z"/><path class="cls-1" d="M185,142.32H146l-1-17.75H119.55l-4.86,17.75h-39L123.31,2.54h46.17ZM143.57,94.61l-.81-16.3a16.63,16.63,0,0,1-.12-2.44q0-2-.31-15.76c0-1,0-2.42,0-4.21s0-4-.05-6.74l.15-13.22c-.25,1.27-.55,2.69-.92,4.26s-.77,3.29-1.2,5.16c-.8,3.74-1.36,6.34-1.69,7.78s-.53,2.33-.62,2.63L133.64,72.7l-6,21.91Z"/><path class="cls-1" d="M193.2,142.32,207.26,2.54h43.91q24.61,0,35.39,10.86,10.92,11.13,9.15,28.79-2.64,26.25-28.94,28.43,14.64,2.16,20.8,9.77t4.72,21.91q-1.82,18-14.59,29t-31.62,11ZM234,112c.71.06,1.34.11,1.88.14s1,0,1.36,0a17.89,17.89,0,0,0,11.64-3.71,14,14,0,0,0,5.21-10q.63-6.24-3.22-9.78t-11.19-3.53h-3Zm5.54-55.14h2.54q6.78,0,11-3.16A12,12,0,0,0,258,44.81q1.23-12.12-12.09-12.13c-.42,0-1,0-1.58,0l-2.33.13Z"/><path class="cls-1" d="M408,72.88q-3.21,32-19.8,52t-39.76,19.91q-20.64,0-33.86-15.3Q298,110.1,301.87,71.34,305.61,34.22,327,14.58,342.8,0,362.55,0,386.72,0,399,19.74T408,72.88Zm-39.23.27q3.81-37.94-9.58-37.93-6.7,0-11.69,10-4.81,9.23-6.62,27.16-1.78,17.66.91,27.38t9.21,9.74q6.69,0,11.28-9.6Q367,90.26,368.77,73.15Z"/><path class="cls-1" d="M482.66,2.54h37.76l-9.95,98.86q-1.25,12.41-5.91,20.1-4.62,8.06-14.14,14.57-12.82,8.7-29.94,8.69-19.37,0-31.53-9.59-15.43-12.22-12.73-39.11l9.41-93.52h37.75l-9.07,90.17q-.92,9.14.92,12.94t7.08,3.81q5.44,0,7.87-3.54,2.46-3.7,3.4-13.12Z"/><path class="cls-1" d="M572.86,142.32H535.1L545.79,36H525l3.37-33.49h80.21L605.18,36H583.54Z"/><path class="cls-1" d="M743.18,72.88q-3.21,32-19.8,52t-39.76,19.91q-20.64,0-33.85-15.3-16.62-19.37-12.72-58.12,3.74-37.12,25.08-56.76Q678,0,697.73,0q24.16,0,36.49,19.74T743.18,72.88ZM704,73.15q3.82-37.94-9.58-37.93-6.71,0-11.69,10-4.81,9.23-6.62,27.16Q674.29,90,677,99.72t9.21,9.74q6.71,0,11.29-9.6Q702.22,90.26,704,73.15Z"/><path class="cls-1" d="M749.53,142.32,763.59,2.54h36l14,49.06q1.1,4.35,2.48,10t3,13l2.66,12.31q-.25-18.19,0-31.14T822.81,34L826,2.54h36L847.94,142.32h-36L798.07,90.9q-2.16-8.25-3.83-15.44t-2.83-13.72q-.31,14.76-.87,25.72t-1.39,19.19l-3.58,35.67Z"/><path class="cls-1" d="M37.75,426.2H0L14.06,286.42H51.81Z"/><path class="cls-1" d="M54.53,426.2l14-139.78h36l14,49.07q1.11,4.33,2.49,10t3,12.94l2.65,12.31q-.26-18.19,0-31.14t1.1-21.73L131,286.42h36L152.94,426.2h-36l-13.84-51.42q-2.16-8.23-3.83-15.44T96.4,345.63q-.32,14.75-.87,25.71t-1.38,19.19L90.56,426.2Z"/><path class="cls-1" d="M169.71,426.2l14.06-139.78h36l14,49.07q1.1,4.33,2.48,10t3,12.94l2.65,12.31q-.24-18.19,0-31.14t1.1-21.73l3.16-31.41h36L268.12,426.2h-36l-13.84-51.42q-2.16-8.23-3.84-15.44t-2.83-13.71q-.3,14.75-.86,25.71t-1.39,19.19l-3.59,35.67Z"/><path class="cls-1" d="M393.34,356.76q-3.22,32-19.81,52t-39.75,19.92q-20.64,0-33.86-15.31Q283.3,394,287.21,355.22q3.72-37.11,25.08-56.76,15.85-14.58,35.59-14.58,24.18,0,36.5,19.74T393.34,356.76Zm-39.23.27q3.81-37.92-9.59-37.93-6.69,0-11.68,10-4.83,9.22-6.62,27.16-1.79,17.65.91,27.38t9.2,9.74q6.71,0,11.29-9.6Q352.39,374.14,354.11,357Z"/><path class="cls-1" d="M454.5,426.2H416L398,286.42h39.65l2.86,39.92q1.59,22.91,1.1,51.24,2.25-12.57,4.81-23.53t5.59-21.37l13.61-46.26h41Z"/><path class="cls-1" d="M582.3,426.2h-39l-1-17.74H516.82L512,426.2h-39l47.64-139.78h46.18Zm-41.46-47.71-.81-16.3a16,16,0,0,1-.11-2.44q0-2-.32-15.75c0-1,0-2.43,0-4.21s0-4-.05-6.75l.16-13.22q-.37,1.9-.93,4.26t-1.2,5.16q-1.2,5.61-1.69,7.79c-.32,1.44-.53,2.32-.62,2.62l-4.33,16.93-6,21.91Z"/><path class="cls-1" d="M634.64,426.2H596.89l10.68-106.29H586.75l3.37-33.49h80.21L667,319.91H645.33Z"/><path class="cls-1" d="M701,426.2H663.27l14.06-139.78h37.75Z"/><path class="cls-1" d="M827.54,356.76q-3.22,32-19.81,52T768,428.65q-20.64,0-33.86-15.31Q717.5,394,721.41,355.22q3.72-37.11,25.08-56.76,15.85-14.58,35.59-14.58,24.18,0,36.5,19.74T827.54,356.76Zm-39.23.27q3.81-37.92-9.59-37.93-6.69,0-11.68,10-4.81,9.22-6.62,27.16-1.78,17.65.91,27.38t9.2,9.74q6.71,0,11.29-9.6Q786.59,374.14,788.31,357Z"/><path class="cls-1" d="M833.89,426.2,848,286.42h36l14,49.07q1.1,4.33,2.48,10t3,12.94l2.65,12.31q-.26-18.19,0-31.14t1.1-21.73l3.15-31.41h36L932.3,426.2h-36l-13.84-51.42q-2.16-8.23-3.84-15.44t-2.83-13.71q-.32,14.75-.86,25.71t-1.39,19.19l-3.59,35.67Z"/><path class="cls-2" d="M136.31,283.79H99.92l-3.77-49Q95,220.59,94.82,210.18c-.07-3.44-.15-6.3-.22-8.6s-.11-4-.1-5.25c-.56,2.48-1.47,7.09-2.76,13.85q-1,5.16-2.17,10.87t-2.75,12l-12.25,50.7H37.81L20.72,144H58l2.29,38.48q1.21,23,1.25,36.12v12.77l2.28-11q3.83-19.18,8.56-36.48L83.46,144H116l3,33.59q2.17,23.44,2.3,55.5,2.44-14.4,4.74-25.53t4.66-20.19L141.86,144H178.7Z"/><path class="cls-2" d="M279.53,214.35q-3.22,32-19.81,52T220,286.23q-20.64,0-33.86-15.3-16.62-19.38-12.71-58.12,3.72-37.12,25.08-56.77,15.86-14.56,35.6-14.57,24.16,0,36.49,19.73T279.53,214.35Zm-39.23.27q3.81-37.93-9.59-37.94-6.69,0-11.68,10-4.83,9.24-6.62,27.16-1.78,17.65.91,27.39t9.2,9.73q6.71,0,11.29-9.59Q238.58,231.73,240.3,214.62Z"/><path class="cls-2" d="M383.43,283.79H342.6L329,234a32.76,32.76,0,0,0-.62-3.35c-.31-1.39-.7-3-1.17-5l-.66,9.24-4.91,48.89H284L298.08,144h38.66q25.53,0,37.19,10.05,14.82,12.85,12.44,36.58-2.55,25.35-25.16,35Zm-54.11-75.06h2.54a15.34,15.34,0,0,0,11.36-5,20.39,20.39,0,0,0,5.62-12.67q1.57-15.66-14.81-15.66h-1.36Z"/><path class="cls-2" d="M495.72,283.79H455l-18.6-64.46-5.48,64.46H393.14L407.2,144H445l-7,59.93L466.23,144h39.83l-36.93,67.45Z"/><path class="cls-2" d="M502.27,280.34l4.42-43.9q9.6,15.21,22.55,15.21a13,13,0,0,0,8.22-2.58,9.08,9.08,0,0,0,3.73-6.48q.57-5.61-5.59-11l-5.68-4.8a72.58,72.58,0,0,1-9.58-9.19,41.49,41.49,0,0,1-6.11-9.41,36.23,36.23,0,0,1-3-10,44.55,44.55,0,0,1-.17-10.86,56.38,56.38,0,0,1,6.58-20.46,59.25,59.25,0,0,1,6.17-9.1,44.45,44.45,0,0,1,7.61-7.29,42.22,42.22,0,0,1,26.71-9.05,54,54,0,0,1,26.44,7.15l-4.29,42.73a34.44,34.44,0,0,0-9.37-11.27A18.41,18.41,0,0,0,559.75,176a11.23,11.23,0,0,0-7.4,2.54,8.35,8.35,0,0,0-3.49,5.88q-.57,5.61,6.57,11.14L561,200q11.09,8.61,15.34,17.66t3.12,21.18q-2.07,20.64-16,34a46.27,46.27,0,0,1-33.21,13.4A74.63,74.63,0,0,1,502.27,280.34Z"/><path class="cls-2" d="M637.48,283.79H599.73L610.42,177.5H589.59L593,144h80.21l-3.37,33.5H648.17Z"/><path class="cls-2" d="M735.1,283.79H697.35l5.95-59.21L676.73,144h39.38l4.71,20.73q1.38,6.08,2.4,11.68T725,187.19q2.85-7.69,5-13.27t3.62-9l9-20.92h39.11l-40.61,80.58Z"/><path class="cls-2" d="M840.69,283.79H774.6l14-139.79h37.76L815.73,250.2h28.34Z"/><path class="cls-2" d="M849.13,283.79,863.19,144h70.16l-3.3,32.87H897.64l-2,20.37h29.06l-3.18,31.59H892.41l-2.15,21.37h32.41l-3.37,33.59Z"/></g></g></svg>