<svg xmlns="http://www.w3.org/2000/svg" viewBox="0 0 860.1 241.43"><defs><style>.cls-1{fill:#fff;}</style></defs><title>アセット 21</title><g id="レイヤー_2" data-name="レイヤー 2"><g id="レイヤー_1-2" data-name="レイヤー 1"><path class="cls-1" d="M256.41,222.67a38.88,38.88,0,0,0-7.06.57c-.57,0-1-.29-1.1-1a51.48,51.48,0,0,1-.72-5.81,61.61,61.61,0,0,0,10.37.58h15.45c3.65,0,7.35-.1,11-.14.72-.05.86.09.86.67a33.94,33.94,0,0,1,0,4.51c0,.58-.19.77-.86.72-3.6,0-7.16-.09-10.71-.09Z"/><path class="cls-1" d="M313.15,223.91c.43.24.48.48.24.87a7.85,7.85,0,0,0-1.25,3.64c0,3,3.12,4.52,11.37,4.52a61.28,61.28,0,0,0,13-1.39c.68-.15.92,0,1,.43a40.82,40.82,0,0,1,.77,4.7c.05.43-.24.63-.82.72a75.8,75.8,0,0,1-14.06,1.15c-11.09,0-16.51-3.45-16.51-9.69,0-2,.71-4,2.54-6.87C310.7,222.62,311.9,223.24,313.15,223.91ZM324,205.1c3.51,0,6.92-.2,10-.44.48,0,.67.15.72.53a28.59,28.59,0,0,1,.43,4.08c0,.67-.24,1-.81,1A28,28,0,0,0,322.55,215a1.91,1.91,0,0,1-2.2.15,11.24,11.24,0,0,0-3.36-1.54c2.49-1.63,4.6-3,6.28-4a30,30,0,0,1-3.5.14,57.12,57.12,0,0,1-8.83-.82c-.44-.09-.63-.28-.63-.86,0-1.15.1-2.54.19-4.27A60.82,60.82,0,0,0,324,205.1Zm13.06-5.33c.24-.19.43-.15.72.09a22,22,0,0,1,4.56,5.14.49.49,0,0,1-.14.77l-2,1.49a.49.49,0,0,1-.81-.15,23.92,23.92,0,0,0-4.85-5.57Zm4.27-3.12c.29-.2.44-.15.72.09a20,20,0,0,1,4.56,4.95.55.55,0,0,1-.14.86L344.54,204a.5.5,0,0,1-.82-.14,22.39,22.39,0,0,0-4.8-5.52Z"/><path class="cls-1" d="M352.17,227.08a13.21,13.21,0,0,0,.05-2.69c1.2.15,2.68.44,3.69.68.58.14.82.33.82.57a1.3,1.3,0,0,1-.24.67,5.72,5.72,0,0,0-.29,1.59,61.45,61.45,0,0,1-1.68,8.93c-.24.76-.43,1-.72,1a2,2,0,0,1-.86-.38,16.35,16.35,0,0,0-2.69-1.25A39,39,0,0,0,352.17,227.08ZM366,212.87c.63-.24.77-.14,1,.34a47.31,47.31,0,0,1,3.22,8.64c.14.53,0,.67-.63.86l-2.45.72c-.57.19-.72.15-.81-.38l-.53-2.11-3,.28v13.16c0,4.41.09,6.05.09,6.29,0,.48-.05.52-.53.52h-3.64c-.49,0-.53,0-.53-.52,0-.29.09-1.88.09-6.29V221.66l-4.22.28a4.23,4.23,0,0,0-1.73.39,1.89,1.89,0,0,1-.77.24c-.33,0-.48-.34-.57-.82-.24-1.15-.48-2.49-.68-4a39.25,39.25,0,0,0,4,.1c.91-1.16,1.82-2.4,2.73-3.65a72.81,72.81,0,0,0-6.38-7c-.43-.34-.29-.48.05-1l1.63-2.5c.19-.28.34-.43.48-.43s.24.1.43.29l1.3,1.34a40.72,40.72,0,0,0,2.64-4.94,15,15,0,0,0,1.1-3,39,39,0,0,1,4.08,1.73c.44.24.63.48.63.77s-.19.43-.44.62a3,3,0,0,0-.91,1.15c-1.53,2.65-2.73,4.57-4.22,6.68.72.81,1.44,1.63,2.11,2.45,1.15-1.78,2.21-3.56,3.27-5.38a24.87,24.87,0,0,0,1.43-3.26,44.3,44.3,0,0,1,4,2.06c.43.24.57.43.57.72s-.14.53-.53.72a5.9,5.9,0,0,0-1.58,2c-2.45,3.84-5,7.53-7.3,10.41,1.73-.09,3.51-.24,5.24-.38-.34-.91-.72-1.82-1.16-2.74-.19-.48-.19-.62.48-.86Zm1.25,11.67c.58-.15.62-.1.82.43a52.42,52.42,0,0,1,2,8.69c.05.53,0,.67-.62.86l-2.3.77c-.73.24-.82.19-.87-.29a69.3,69.3,0,0,0-1.82-9.12c-.15-.53,0-.62.53-.77Zm14.11-20.88c-.48,6.62-3.12,11.23-8.4,14.64-.57.38-.86.62-1.1.62s-.53-.34-1-1.06a8.21,8.21,0,0,0-2.5-2.49c5.14-2.5,7.83-5.81,8.31-11.71h-.43c-4.28,0-5.72.09-6,.09-.48,0-.53-.05-.53-.58v-3.31c0-.53.05-.57.53-.57.33,0,1.77.09,6,.09h10.17c4.32,0,5.76-.09,6.05-.09.48,0,.53.09.53.62,0,1.2,0,2.35,0,3.31-.14,5.48-.57,9.89-1.44,11.81-1,2.16-3,3.07-5.61,3.07-1.11,0-1.83,0-2.74,0-1.35-.05-1.35-.1-1.59-1.59a11.44,11.44,0,0,0-1-3.21,33.48,33.48,0,0,0,4.41.38,2.35,2.35,0,0,0,2.26-1.06c.53-.86,1-4.7,1-8.92Zm-9.26,37.44c-.48,0-.53,0-.53-.58,0-.24.1-1.58.1-8.78v-4.32c0-4.37-.1-5.81-.1-6,0-.53.05-.58.53-.58s1.68.1,5.66.1h8c3.93,0,5.33-.1,5.62-.1.52,0,.57.05.57.58,0,.24-.09,1.68-.09,5.28v4.94c0,7.11.09,8.45.09,8.74s-.05.48-.57.48h-3.7c-.48,0-.53-.05-.53-.48v-1.82h-10.9v2c0,.53,0,.58-.57.58Zm4.17-7h10.9V225.3h-10.9Z"/><path class="cls-1" d="M423,199.43c5.14,7,10.75,11.38,20.26,15.12a14.3,14.3,0,0,0-2.07,3.79c-.33.87-.48,1.25-.86,1.25a3.66,3.66,0,0,1-1.1-.43c-8.55-4-14.31-8.93-18.82-15.7-4.42,6.92-10.18,11.67-18,15.8a3,3,0,0,1-1.15.52c-.29,0-.48-.38-.86-1.2a11.41,11.41,0,0,0-2.21-3.4c8.4-3.65,14-8.36,18.1-15a13.15,13.15,0,0,0,1.68-3.51,31.77,31.77,0,0,1,5,1c.43.1.82.39.82.72s-.15.43-.48.72ZM409,231c1.39-2.35,1.83-5.28,1.83-10.42a34.31,34.31,0,0,0-.34-5.61c1.68,0,3.74.09,5.33.24.53,0,.81.24.81.57a2.88,2.88,0,0,1-.24,1.06,14.6,14.6,0,0,0-.28,3.89c0,6.72-.82,10.37-2.69,13.44a18.69,18.69,0,0,1-8.55,6.81,3.48,3.48,0,0,1-1.15.48c-.29,0-.53-.28-1-1.05a13.54,13.54,0,0,0-2.83-3.27C404.34,235.67,407.46,233.51,409,231Zm15.94-8.79a49.42,49.42,0,0,0-.34-7.34c1.88,0,3.7.19,5.28.38.48.05.72.24.72.53a5,5,0,0,1-.24,1.2,34.38,34.38,0,0,0-.24,5.19v12.14c0,3.94.1,5.91.1,6.19,0,.44-.05.48-.58.48h-4.27c-.48,0-.53,0-.53-.48s.1-2.25.1-6.19Z"/><path class="cls-1" d="M471.11,199.53c5.38,7,12.29,11.52,20.55,14.54a14.18,14.18,0,0,0-2.16,3.7c-.34.86-.48,1.2-.82,1.2a3.36,3.36,0,0,1-1.1-.39c-8.16-3.74-14.5-8.59-19.2-15.16a52.1,52.1,0,0,1-18.44,15.36,3.73,3.73,0,0,1-1.15.48c-.33,0-.48-.34-.86-1.16a12.66,12.66,0,0,0-2.26-3.31c9-4,14.69-9,18.53-14.59a12.85,12.85,0,0,0,1.78-3.55,50.55,50.55,0,0,1,5.18,1c.53.15.87.39.87.77a.87.87,0,0,1-.53.72Zm-17.42,40c-4.27,0-5.71.1-6.05.1s-.48-.05-.48-.48v-3.84c0-.48,0-.53.48-.53s1.78.1,6.05.1H455V224.34a22.16,22.16,0,0,0-.38-5.23c1.82,0,3.7.15,5.43.34.47.05.76.29.76.53a2.28,2.28,0,0,1-.33,1,10.78,10.78,0,0,0-.29,3.51v10.37h6.62V216.57a26,26,0,0,0-.33-5.23c1.77,0,3.74.14,5.37.33.48.05.77.29.77.53a2.42,2.42,0,0,1-.29,1.06c-.28.57-.28,1.53-.28,3.45v4.47h4.84c4.37,0,5.91-.1,6.2-.1.48,0,.52,0,.52.53v3.74c0,.48,0,.53-.52.53-.29,0-1.83-.09-6.2-.09H472v9.07h11.42c4.23,0,5.71-.1,6-.1.48,0,.53.05.53.53v3.84c0,.43-.05.48-.53.48-.29,0-1.77-.1-6-.1Z"/><path class="cls-1" d="M501.83,229.48c-4.32,0-5.76.1-6.05.1-.52,0-.57-.05-.57-.53v-2.83c0-.53.05-.58.57-.58.29,0,1.73.1,6.05.1h11.86v-2.6h-6.77c-4.66,0-6.34.1-6.62.1-.48,0-.48-.05-.48-.53V220c0-.53,0-.58.48-.58.28,0,2,.1,6.62.1h6.77V217h-9c-4.61,0-6.15.1-6.44.1-.53,0-.57-.05-.57-.48v-2.83c0-.48,0-.53.57-.53.29,0,1.83.09,6.44.09h2.92c-.52-1.15-1-2.11-1.53-3-.24-.43-.29-.62.33-.82l3.12-.86h-7.68c-4.32,0-5.76.1-6.05.1-.52,0-.57,0-.57-.53v-3c0-.53.05-.57.57-.57.29,0,1.73.09,6.05.09h.34a22.42,22.42,0,0,0-2.74-4.13c-.29-.33-.19-.53.39-.81l2.78-1.3c.48-.24.62-.19.91.19a28,28,0,0,1,3.22,4.66c.24.43.24.48-.39.81l-1.15.58h4.47v-3.17a18.61,18.61,0,0,0-.29-4.17c1.49,0,3.36.14,4.66.28.38,0,.57.2.57.44a2.39,2.39,0,0,1-.19.81,7.62,7.62,0,0,0-.29,2.64v3.17H518v-3.12a18.85,18.85,0,0,0-.29-4.22c1.44,0,3.31.14,4.61.33.43.05.62.19.62.43a2.13,2.13,0,0,1-.19.77,7.62,7.62,0,0,0-.29,2.64v3.17h3a34.91,34.91,0,0,0,2.21-3.94,9,9,0,0,0,.81-2.59,41.19,41.19,0,0,1,4.66,1.25c.43.15.62.38.62.62a1,1,0,0,1-.47.82,5,5,0,0,0-.82.91c-.63,1-1.3,2-2,2.93h.67c4.32,0,5.76-.09,6.05-.09.48,0,.53,0,.53.57v3c0,.48,0,.53-.53.53-.29,0-1.73-.1-6.05-.1h-8.4c1.25.24,2.35.48,3.79.86.39.1.63.29.63.58a.82.82,0,0,1-.53.72,3.22,3.22,0,0,0-.67,1l-.87,1.53h3.12c4.61,0,6.15-.09,6.44-.09.48,0,.53,0,.53.53v2.83c0,.43-.05.48-.53.48-.29,0-1.83-.1-6.44-.1h-9.69v2.55h7.63c4.71,0,6.34-.1,6.62-.1.49,0,.53,0,.53.58v2.73c0,.48,0,.53-.53.53-.28,0-1.91-.1-6.62-.1h-7.63v2.6h12.62c4.32,0,5.76-.1,6.05-.1.48,0,.53.05.53.58v2.83c0,.48,0,.53-.53.53-.29,0-1.73-.1-6.05-.1h-8.54c4,2.83,9.07,4.71,16,6.24a14.09,14.09,0,0,0-1.87,3.07c-.38.92-.57,1.25-1.05,1.25a4.84,4.84,0,0,1-1.11-.24,42,42,0,0,1-16.13-8.59c0,5.71.24,8.69.24,9.5,0,.48,0,.53-.53.53h-4.08c-.43,0-.48-.05-.48-.53,0-.81.15-3.6.2-9.31-4,3.84-9,6.53-15.41,8.59a3.5,3.5,0,0,1-1.11.29c-.43,0-.62-.33-1-1.25a12,12,0,0,0-1.92-2.88c6.38-1.58,11.28-3.55,15.31-6.67Zm18.53-16.18c.43-.81.82-1.63,1.3-2.78a9.33,9.33,0,0,0,.53-1.92H510c.14.05.24.19.38.38a29.91,29.91,0,0,1,2.16,4.32Z"/><path class="cls-1" d="M566.2,222.67a39,39,0,0,0-7.06.57c-.57,0-1-.29-1.1-1a51.48,51.48,0,0,1-.72-5.81,61.61,61.61,0,0,0,10.37.58h15.46c3.64,0,7.34-.1,11-.14.72-.05.86.09.86.67a33.94,33.94,0,0,1,0,4.51c0,.58-.19.77-.86.72-3.6,0-7.15-.09-10.71-.09Z"/><path class="cls-1" d="M86,106.59l-6.69,43.34q-14.06,5.43-24.74,5.44-25.17,0-40.51-18.46Q-3.12,116.21.69,78.32q3.57-35.47,23.8-56.94T74.93,0A55.59,55.59,0,0,1,94.58,3.69L90.27,46.54q-8.13-9-17.65-9-12.44,0-20.5,10.59t-10,29.54A68.37,68.37,0,0,0,42.26,94,35.46,35.46,0,0,0,46,106.11a19.48,19.48,0,0,0,7.26,7.57,20.65,20.65,0,0,0,10.62,2.63Q74.41,116.31,86,106.59Z"/><path class="cls-1" d="M215,78.22Q211.5,112.53,193.7,134T151,155.37q-22.15,0-36.34-16.42-17.82-20.79-13.64-62.38,4-39.84,26.92-60.93Q145,0,166.17,0q26,0,39.17,21.18T215,78.22Zm-42.1.29q4.1-40.71-10.28-40.71-7.2,0-12.55,10.69-5.18,9.9-7.1,29.15-1.9,18.94,1,29.39t9.88,10.44q7.2,0,12.12-10.3Q171,96.88,172.85,78.51Z"/><path class="cls-1" d="M375.17,152.75H332.81l3.86-68.41L338.16,57q-1.49,7.86-3.07,15t-3.53,13.84l-19.45,66.86h-33L274.92,85.8q-.37-5.83-.61-20c0-1.42,0-4.34,0-8.74l-3.76,27.69-10.43,68H217l32.57-150H300l3.37,50.53q.45,6.21.54,13.5t-.09,15.84A254.2,254.2,0,0,1,309.88,57L325.64,2.72h50Z"/><path class="cls-1" d="M433.67,152.75H393.15l15.08-150h39.26q29.34,0,42.33,12,15.29,14.1,12.77,39.16-2.74,27.3-21.87,40.71-13.07,9-35.79,9h-6.32ZM442,69.86l1.84.1a17.18,17.18,0,0,0,12.21-4.52q4.83-4.52,5.62-12.39t-3-12.63a12.34,12.34,0,0,0-10.38-5h-2.82Z"/><path class="cls-1" d="M604.53,152.75H562.65l-1.09-19.05H534.25L529,152.75H487.16l51.13-150h49.56ZM560,101.54l-.86-17.49a16.47,16.47,0,0,1-.13-2.63q0-2.13-.34-16.9c0-1.1,0-2.61,0-4.52s0-4.32,0-7.24l.16-14.18c-.26,1.36-.6,2.88-1,4.56s-.83,3.53-1.29,5.54c-.85,4-1.46,6.8-1.81,8.36s-.57,2.49-.67,2.81L549.37,78l-6.44,23.52Z"/><path class="cls-1" d="M616.29,152.75l15.09-150h38.67l15,52.66q1.19,4.66,2.67,10.69c1,4,2.06,8.65,3.21,13.9l2.85,13.21q-.27-19.53,0-33.42t1.18-23.32l3.39-33.72H737l-15.09,150H683.24l-14.86-55.2q-2.31-8.83-4.11-16.56t-3-14.72q-.33,15.84-.93,27.59t-1.49,20.6L655,152.75Z"/><path class="cls-1" d="M810.14,152.75H769.62L776,89.2,747.49,2.72h42.27l5,22.25q1.47,6.51,2.57,12.54t1.9,11.56q3.08-8.26,5.32-14.24t3.89-9.66l9.64-22.45h42L816.53,89.2Z"/></g></g></svg>