<svg xmlns="http://www.w3.org/2000/svg" viewBox="0 0 200 44.44"><defs><style>.cls-1{fill:none;stroke:#000;stroke-miterlimit:10;stroke-width:4px;}</style></defs><title>アセット 25</title><g id="レイヤー_2" data-name="レイヤー 2"><g id="TEXT"><path d="M36.62,16l-1,6.5a10.75,10.75,0,0,1-3.73.82,7.59,7.59,0,0,1-6.11-2.77q-2.59-3.11-2-8.79a14,14,0,0,1,3.59-8.54A10,10,0,0,1,35,0a8.41,8.41,0,0,1,3,.55L37.26,7A3.56,3.56,0,0,0,34.6,5.63a3.75,3.75,0,0,0-3.09,1.58A8.7,8.7,0,0,0,30,11.65a10.35,10.35,0,0,0,0,2.44,5.19,5.19,0,0,0,.57,1.83,3,3,0,0,0,1.09,1.13,3.2,3.2,0,0,0,1.61.4A5.31,5.31,0,0,0,36.62,16Z"/><path d="M55.84,22.91H49.52l-.16-2.85H45.24l-.78,2.85H38.14L45.84.41h7.47Zm-6.71-7.68L49,12.61a2.57,2.57,0,0,1,0-.4c0-.21,0-1.06-.06-2.53V9c0-.29,0-.65,0-1.09l0-2.12c0,.2-.09.43-.15.68s-.12.53-.19.83l-.27,1.26c-.06.23-.09.37-.1.42l-.7,2.72-1,3.53Z"/><path d="M58.08,22.36l.71-7.07q1.56,2.45,3.65,2.45a2.07,2.07,0,0,0,1.33-.42,1.44,1.44,0,0,0,.61-1,2.08,2.08,0,0,0-.91-1.76l-.92-.78A11.06,11.06,0,0,1,61,12.26a6.53,6.53,0,0,1-1-1.51,5.84,5.84,0,0,1-.48-1.61,7.27,7.27,0,0,1,0-1.75A9.14,9.14,0,0,1,60.56,4.1a9.25,9.25,0,0,1,1-1.47,7.55,7.55,0,0,1,1.23-1.17A6.86,6.86,0,0,1,67.11,0a8.73,8.73,0,0,1,4.28,1.15L70.7,8a5.49,5.49,0,0,0-1.52-1.81,2.94,2.94,0,0,0-1.8-.67,1.84,1.84,0,0,0-1.2.41,1.36,1.36,0,0,0-.57,1A2.12,2.12,0,0,0,66.68,8.7l.89.72a8.12,8.12,0,0,1,2.49,2.84,6.37,6.37,0,0,1,.5,3.41A8.51,8.51,0,0,1,68,21.15a7.52,7.52,0,0,1-5.38,2.16A12.23,12.23,0,0,1,58.08,22.36Z"/><path d="M73.12,22.91,75.39.41H86.74L86.21,5.7H81L80.63,9h4.7l-.51,5.08h-4.7l-.35,3.44H85l-.55,5.41Z"/><path d="M94,22.36l.71-7.07c1,1.63,2.25,2.45,3.65,2.45a2.09,2.09,0,0,0,1.33-.42,1.43,1.43,0,0,0,.6-1,2.09,2.09,0,0,0-.9-1.76l-.92-.78A10.54,10.54,0,0,1,97,12.26a6.53,6.53,0,0,1-1-1.51,6.23,6.23,0,0,1-.49-1.61,7.27,7.27,0,0,1,0-1.75A9,9,0,0,1,96.51,4.1a9.25,9.25,0,0,1,1-1.47,6.82,6.82,0,0,1,1.23-1.17A6.86,6.86,0,0,1,103.06,0a8.79,8.79,0,0,1,4.28,1.15L106.65,8a5.61,5.61,0,0,0-1.52-1.81,3,3,0,0,0-1.81-.67,1.84,1.84,0,0,0-1.2.41,1.31,1.31,0,0,0-.56,1,2.1,2.1,0,0,0,1.06,1.79l.9.72A8.18,8.18,0,0,1,106,12.26a6.28,6.28,0,0,1,.51,3.41,8.56,8.56,0,0,1-2.59,5.48,7.48,7.48,0,0,1-5.37,2.16A12.15,12.15,0,0,1,94,22.36Z"/><path d="M117.25,22.91h-6.1L112.87,5.8H109.5L110,.41h13l-.54,5.39H119Z"/><path d="M134.73.41h6.11l-1.6,15.91a7.66,7.66,0,0,1-1,3.24A7.44,7.44,0,0,1,136,21.91a8.5,8.5,0,0,1-4.85,1.4,8,8,0,0,1-5.1-1.55c-1.67-1.31-2.35-3.41-2.06-6.3l1.51-15h6.11l-1.46,14.51A4.19,4.19,0,0,0,130.3,17a1.15,1.15,0,0,0,1.15.61,1.44,1.44,0,0,0,1.27-.57,5,5,0,0,0,.55-2.11Z"/><path d="M142.64,22.91,144.9.41h5.28c3,0,5.28.8,6.8,2.42q3,3.17,2.42,8.84t-3.67,8.65q-2.64,2.59-7.38,2.59Zm6.65-5.43q3.3-.16,3.85-5.63a8.61,8.61,0,0,0-.41-4.26A2.21,2.21,0,0,0,150.64,6h-.19Z"/><path d="M170.71,22.91H164.6l1-9.53-4.3-13h6.37l.76,3.34c.15.65.28,1.27.39,1.88s.21,1.18.29,1.73c.31-.83.57-1.54.8-2.13s.42-1.09.58-1.46L171.91.41h6.32l-6.56,13Z"/><line class="cls-1" y1="42.44" x2="200" y2="42.44"/></g></g></svg>