<svg xmlns="http://www.w3.org/2000/svg" viewBox="0 0 800 100"><defs><style>.cls-1{fill:#fff;}</style></defs><title>アセット 27</title><g id="レイヤー_2" data-name="レイヤー 2"><g id="背景"><rect width="800" height="100"/></g><g id="レイヤー_1-2" data-name="レイヤー 1"><path class="cls-1" d="M231.06,44.81a6,6,0,0,1,6.11,6.91,7.74,7.74,0,0,1-7.51,7,6.1,6.1,0,0,1-6.16-7A7.75,7.75,0,0,1,231.06,44.81Zm-1.33,13a6.59,6.59,0,0,0,6.37-6.09c.33-3.2-1.69-6.07-5.13-6.07a6.64,6.64,0,0,0-6.42,6.13A5.2,5.2,0,0,0,229.73,57.83Zm3.44-2.61a5.38,5.38,0,0,1-2.85.72,3.47,3.47,0,0,1-3.73-4.08,4.67,4.67,0,0,1,4.72-4.2,4.4,4.4,0,0,1,2.42.6l-.32.83a4.53,4.53,0,0,0-2.15-.53,3.38,3.38,0,0,0-3.56,3.24A2.73,2.73,0,0,0,230.63,55a4.8,4.8,0,0,0,2.36-.61Z"/><path class="cls-1" d="M249.34,59.39H239l4.67-5.47c.53-.62,1-1.18,1.35-1.67s.66-.92.88-1.29a5.08,5.08,0,0,0,.75-2.18,1.53,1.53,0,0,0-.15-1,.73.73,0,0,0-.66-.36c-.65,0-1,.61-1.16,1.83,0,.06,0,.14,0,.23s0,.2,0,.32h-3.95l0-.54a5.76,5.76,0,0,1,1.78-3.72,5.35,5.35,0,0,1,3.77-1.45,4.2,4.2,0,0,1,3.34,1.38,4.31,4.31,0,0,1,1,3.52,7.36,7.36,0,0,1-1.27,3.4,13.89,13.89,0,0,1-1.39,1.74,25.1,25.1,0,0,1-2,1.91c.62,0,1.24-.08,1.86-.1s1.26,0,1.91,0Z"/><path class="cls-1" d="M262.43,52a10.68,10.68,0,0,1-2,5.59,4.9,4.9,0,0,1-4,2.07,4.14,4.14,0,0,1-3.82-2.09,9.52,9.52,0,0,1-.86-5.81,10.36,10.36,0,0,1,2-5.57,5.1,5.1,0,0,1,4.13-2.06,3.93,3.93,0,0,1,3.68,2.09A9.73,9.73,0,0,1,262.43,52Zm-4,0c.3-2.9,0-4.35-.88-4.35s-1.44,1.3-1.7,3.89q-.47,4.65.82,4.65c.46,0,.83-.34,1.12-1A11.84,11.84,0,0,0,258.41,52Z"/><path class="cls-1" d="M269.7,59.39h-4.08l1.16-11.47h-1.63l.35-3.53h5.71Z"/><path class="cls-1" d="M274.55,59.39l2.84-4.27.38-.53.49-.65a3.49,3.49,0,0,1-1.48.43A2.9,2.9,0,0,1,274.29,53a5.07,5.07,0,0,1-.73-3.41,6.07,6.07,0,0,1,1.85-3.94,5.5,5.5,0,0,1,3.94-1.51,4.15,4.15,0,0,1,3.42,1.49,5.16,5.16,0,0,1,1,3.94c-.17,1.73-1.23,4.14-3.16,7.22l-1.64,2.62Zm2.93-9.94c-.13,1.33.19,2,1,2s1.18-.67,1.31-2-.16-2.09-.91-2.09S277.63,48,277.48,49.45Z"/><path class="cls-1" d="M302.6,51.94a10.06,10.06,0,0,1-2.13,5.58,5.39,5.39,0,0,1-4.29,2.13A4.6,4.6,0,0,1,292.53,58c-1.19-1.39-1.65-3.46-1.37-6.24a9.16,9.16,0,0,1,2.7-6.09,5.55,5.55,0,0,1,3.84-1.56,4.36,4.36,0,0,1,3.94,2.11A8.92,8.92,0,0,1,302.6,51.94Zm-4.23,0c.28-2.72-.07-4.07-1-4.07-.48,0-.9.35-1.26,1.06a8.3,8.3,0,0,0-.72,2.92,8.66,8.66,0,0,0,.1,2.94c.2.7.53,1,1,1s.89-.34,1.22-1A8.42,8.42,0,0,0,298.37,52Z"/><path class="cls-1" d="M303.59,59.39l1.51-15H309l1.51,5.26.27,1.07c.1.4.21.87.32,1.39l.29,1.32c0-1.3,0-2.41,0-3.34s.05-1.7.11-2.33l.34-3.37h3.89l-1.51,15h-3.89l-1.49-5.52c-.16-.59-.3-1.14-.42-1.66s-.22-1-.3-1.47c0,1.06-.06,2-.1,2.76s-.09,1.47-.14,2.06l-.39,3.83Z"/><path class="cls-1" d="M331.27,54.78l-.67,4.33a7.09,7.09,0,0,1-2.48.54,5,5,0,0,1-4.07-1.84c-1.15-1.38-1.6-3.34-1.35-5.86a9.44,9.44,0,0,1,2.39-5.7,6.72,6.72,0,0,1,5.07-2.13,5.46,5.46,0,0,1,2,.37l-.43,4.28a2.36,2.36,0,0,0-1.77-.9,2.48,2.48,0,0,0-2.06,1.06,5.78,5.78,0,0,0-1,3,6.77,6.77,0,0,0,0,1.63,3.65,3.65,0,0,0,.38,1.22,2,2,0,0,0,.73.75,2,2,0,0,0,1.07.27A3.55,3.55,0,0,0,331.27,54.78Z"/><path class="cls-1" d="M344.24,51.94a10.07,10.07,0,0,1-2.14,5.58,5.39,5.39,0,0,1-4.28,2.13A4.61,4.61,0,0,1,334.16,58c-1.19-1.39-1.65-3.46-1.37-6.24a9.16,9.16,0,0,1,2.7-6.09,5.55,5.55,0,0,1,3.84-1.56,4.36,4.36,0,0,1,3.94,2.11A9,9,0,0,1,344.24,51.94ZM340,52c.28-2.72-.07-4.07-1-4.07-.48,0-.9.35-1.26,1.06a8.11,8.11,0,0,0-.71,2.92,8.18,8.18,0,0,0,.1,2.94c.19.7.52,1,1,1s.89-.34,1.22-1A8.42,8.42,0,0,0,340,52Z"/><path class="cls-1" d="M349.66,57.39a2.29,2.29,0,0,1-.83,1.56,2.37,2.37,0,0,1-1.66.65,2.08,2.08,0,0,1-1.57-.66,2,2,0,0,1-.51-1.62,2.57,2.57,0,0,1,2.49-2.25,2,2,0,0,1,2.08,2.32Z"/><path class="cls-1" d="M358.37,59.39h-7.13l1.51-15h4.07l-1.14,11.4h3.05Z"/><path class="cls-1" d="M364.42,59.39h-4.07L361.5,48h-2.25l.36-3.59h8.66L367.91,48h-2.34Z"/><path class="cls-1" d="M367.81,59.39l1.51-15h3.52A5.94,5.94,0,0,1,377.37,46,7.16,7.16,0,0,1,379,51.9a9,9,0,0,1-2.45,5.76,6.75,6.75,0,0,1-4.92,1.73Zm4.44-3.62q2.21-.1,2.56-3.75a5.82,5.82,0,0,0-.27-2.84,1.48,1.48,0,0,0-1.4-1H373Z"/><path class="cls-1" d="M384.41,57.39a2.33,2.33,0,0,1-.83,1.56,2.39,2.39,0,0,1-1.67.65,2.07,2.07,0,0,1-1.56-.66,2,2,0,0,1-.51-1.62,2.38,2.38,0,0,1,.82-1.59,2.42,2.42,0,0,1,1.67-.66,2.05,2.05,0,0,1,2.08,2.32Z"/><path class="cls-1" d="M402.86,59.39h-4.21l-.11-1.9H395.8l-.53,1.9h-4.21l5.14-15h5Zm-4.47-5.12-.09-1.75a1.11,1.11,0,0,1,0-.26c0-.14,0-.71,0-1.69v-.45c0-.19,0-.44,0-.73l0-1.42c0,.14-.06.29-.1.46s-.08.35-.13.55c-.09.41-.15.68-.18.84s-.06.25-.07.28l-.47,1.82-.64,2.35Z"/><path class="cls-1" d="M411.17,59.39H404l1.51-15h4.07l-1.14,11.4h3Z"/><path class="cls-1" d="M419.51,59.39h-7.13l1.51-15H418l-1.14,11.4h3.05Z"/><path class="cls-1" d="M431.45,59.39H427l-1.47-5.34c0-.09,0-.21-.07-.36s-.08-.33-.13-.54l-.07,1-.52,5.25h-4.06l1.51-15h4.17a6.09,6.09,0,0,1,4,1.08,4.28,4.28,0,0,1,1.35,3.92,4.26,4.26,0,0,1-2.71,3.76Zm-5.85-8h.28a1.63,1.63,0,0,0,1.22-.54,2.2,2.2,0,0,0,.61-1.36c.11-1.12-.42-1.68-1.6-1.68H426Z"/><path class="cls-1" d="M436.87,59.39h-4.08l1.51-15h4.07Z"/><path class="cls-1" d="M445.09,50.71h5.69l-.07.63q-.43,4.32-1.92,6.23a5.29,5.29,0,0,1-4.4,2.08,4.53,4.53,0,0,1-4.07-2,8.6,8.6,0,0,1-1-5.65,10.44,10.44,0,0,1,2.13-5.75,5.6,5.6,0,0,1,4.46-2.09c2.38,0,4,1.23,4.81,3.71l-4.09,1.44a2.14,2.14,0,0,0-.29-1.13.86.86,0,0,0-.75-.41q-1.68,0-2.15,4.6a7.61,7.61,0,0,0,.09,2.83,1.1,1.1,0,0,0,1.09.89,1.12,1.12,0,0,0,.6-.16,1.54,1.54,0,0,0,.49-.43,2.48,2.48,0,0,0,.35-.69,4,4,0,0,0,.2-.9h-1.51Z"/><path class="cls-1" d="M461.73,59.39h-4.07l.6-6h-1.94l-.61,6h-4.07l1.51-15h4.07l-.53,5.3h1.94l.54-5.3h4.07Z"/><path class="cls-1" d="M469.1,59.39H465L466.18,48h-2.25l.36-3.59h8.65L472.58,48h-2.33Z"/><path class="cls-1" d="M472.53,59l.47-4.71a2.92,2.92,0,0,0,2.44,1.63,1.36,1.36,0,0,0,.88-.28.93.93,0,0,0,.4-.69,1.42,1.42,0,0,0-.6-1.18l-.61-.51a7.67,7.67,0,0,1-1-1,4.17,4.17,0,0,1-.66-1,4,4,0,0,1-.32-1.07,5,5,0,0,1,0-1.17,6,6,0,0,1,.71-2.19,6.26,6.26,0,0,1,.67-1,4.33,4.33,0,0,1,.82-.78,4.53,4.53,0,0,1,2.88-1,5.86,5.86,0,0,1,2.85.76l-.46,4.59a3.82,3.82,0,0,0-1-1.21,2,2,0,0,0-1.21-.44,1.23,1.23,0,0,0-.8.27.91.91,0,0,0-.37.63,1.41,1.41,0,0,0,.71,1.2l.59.47a5.49,5.49,0,0,1,1.66,1.9,4.27,4.27,0,0,1,.34,2.27,5.65,5.65,0,0,1-1.73,3.65,5,5,0,0,1-3.58,1.44A8.09,8.09,0,0,1,472.53,59Z"/><path class="cls-1" d="M498.69,59.39h-4.4l-1.48-5.34q0-.13-.06-.36c0-.15-.08-.33-.13-.54l-.07,1L492,59.39h-4l1.51-15h4.17a6.1,6.1,0,0,1,4,1.08A4.28,4.28,0,0,1,499,49.39a4.24,4.24,0,0,1-2.71,3.76Zm-5.84-8h.27a1.66,1.66,0,0,0,1.23-.54,2.2,2.2,0,0,0,.61-1.36c.11-1.12-.42-1.68-1.6-1.68h-.15Z"/><path class="cls-1" d="M500,59.39l1.51-15h7.57l-.36,3.53h-3.49l-.22,2.18h3.13l-.34,3.39H504.7l-.23,2.3H508l-.36,3.6Z"/><path class="cls-1" d="M509.06,59l.47-4.71A2.94,2.94,0,0,0,512,55.94a1.39,1.39,0,0,0,.89-.28,1,1,0,0,0,.4-.69,1.4,1.4,0,0,0-.61-1.18l-.61-.51a7.55,7.55,0,0,1-1-1,4.17,4.17,0,0,1-.66-1,3.67,3.67,0,0,1-.32-1.07A4.14,4.14,0,0,1,510,49a6,6,0,0,1,.7-2.19,6.26,6.26,0,0,1,.67-1,4.65,4.65,0,0,1,.82-.78,4.53,4.53,0,0,1,2.88-1,5.86,5.86,0,0,1,2.85.76l-.46,4.59a3.82,3.82,0,0,0-1-1.21,2,2,0,0,0-1.2-.44,1.21,1.21,0,0,0-.8.27.93.93,0,0,0-.38.63,1.43,1.43,0,0,0,.71,1.2l.6.47a5.35,5.35,0,0,1,1.65,1.9,4.17,4.17,0,0,1,.34,2.27,5.64,5.64,0,0,1-1.72,3.65,5,5,0,0,1-3.59,1.44A8.13,8.13,0,0,1,509.06,59Z"/><path class="cls-1" d="M518.49,59.39l1.51-15h7.56l-.35,3.53h-3.5l-.22,2.18h3.14l-.34,3.39h-3.14l-.23,2.3h3.5l-.37,3.6Z"/><path class="cls-1" d="M538.52,59.39h-4.41l-1.47-5.34c0-.09,0-.21-.07-.36s-.08-.33-.13-.54l-.07,1-.52,5.25h-4.06l1.51-15h4.17a6.07,6.07,0,0,1,4,1.08,4.28,4.28,0,0,1,1.35,3.92,4.26,4.26,0,0,1-2.71,3.76Zm-5.84-8H533a1.63,1.63,0,0,0,1.22-.54,2.2,2.2,0,0,0,.61-1.36c.11-1.12-.42-1.68-1.6-1.68H533Z"/><path class="cls-1" d="M546.11,59.39H542l-2-15h4.28l.31,4.28c.12,1.64.16,3.48.12,5.5.17-.9.34-1.74.52-2.52s.39-1.55.6-2.3l1.47-5h4.42Z"/><path class="cls-1" d="M551.28,59.39l1.51-15h7.57L560,47.92h-3.49l-.22,2.18h3.13l-.34,3.39h-3.14l-.23,2.3h3.5l-.36,3.6Z"/><path class="cls-1" d="M560.59,59.39l1.5-15h3.52A6,6,0,0,1,570.15,46c1.33,1.41,1.86,3.37,1.61,5.9a9,9,0,0,1-2.45,5.76,6.72,6.72,0,0,1-4.92,1.73ZM565,55.77c1.47-.07,2.32-1.32,2.57-3.75a5.82,5.82,0,0,0-.27-2.84,1.48,1.48,0,0,0-1.4-1h-.13Z"/><path class="cls-1" d="M577.18,57.39a2.29,2.29,0,0,1-.83,1.56,2.37,2.37,0,0,1-1.66.65,2.08,2.08,0,0,1-1.57-.66,2,2,0,0,1-.51-1.62,2.57,2.57,0,0,1,2.49-2.25,2,2,0,0,1,2.08,2.32Z"/></g></g></svg>